<svg xmlns="http://www.w3.org/2000/svg" version="1.1" xmlns:xlink="http://www.w3.org/1999/xlink" xmlns:svgjs="http://svgjs.com/svgjs" width="1080" height="1920" preserveAspectRatio="none" viewBox="0 0 1080 1920"><g mask="url(&quot;#SvgjsMask1010&quot;)" fill="none"><rect width="1080" height="1920" x="0" y="0" fill="#0e2a47"></rect><path d="M66.01 -57.19L130.96 -19.69L130.96 55.31L66.01 92.81L1.06 55.31L1.06 -19.69zM130.96 55.31L195.92 92.81L195.92 167.81L130.96 205.31L66.01 167.81L66.01 92.81zM66.01 167.81L130.96 205.31L130.96 280.31L66.01 317.81L1.06 280.31L1.06 205.31zM66.01 392.81L130.96 430.31L130.96 505.31L66.01 542.81L1.06 505.31L1.06 430.31zM130.96 505.31L195.92 542.81L195.92 617.81L130.96 655.31L66.01 617.81L66.01 542.81zM130.96 730.31L195.92 767.81L195.92 842.81L130.96 880.31L66.01 842.81L66.01 767.81zM66.01 842.81L130.96 880.31L130.96 955.31L66.01 992.81L1.06 955.31L1.06 880.31zM66.01 1067.81L130.96 1105.31L130.96 1180.31L66.01 1217.81L1.06 1180.31L1.06 1105.31zM130.96 1180.31L195.92 1217.81L195.92 1292.81L130.96 1330.31L66.01 1292.81L66.01 1217.81zM66.01 1517.81L130.96 1555.31L130.96 1630.31L66.01 1667.81L1.06 1630.31L1.06 1555.31zM66.01 1742.81L130.96 1780.31L130.96 1855.31L66.01 1892.81L1.06 1855.31L1.06 1780.31zM130.96 1855.31L195.92 1892.81L195.92 1967.81L130.96 2005.31L66.01 1967.81L66.01 1892.81zM260.87 55.31L325.82 92.81L325.82 167.81L260.87 205.31L195.92 167.81L195.92 92.81zM260.87 505.31L325.82 542.81L325.82 617.81L260.87 655.31L195.92 617.81L195.92 542.81zM260.87 730.31L325.82 767.81L325.82 842.81L260.87 880.31L195.92 842.81L195.92 767.81zM260.87 1180.31L325.82 1217.81L325.82 1292.81L260.87 1330.31L195.92 1292.81L195.92 1217.81zM195.92 1517.81L260.87 1555.31L260.87 1630.31L195.92 1667.81L130.96 1630.31L130.96 1555.31zM260.87 1630.31L325.82 1667.81L325.82 1742.81L260.87 1780.31L195.92 1742.81L195.92 1667.81zM195.92 1742.81L260.87 1780.31L260.87 1855.31L195.92 1892.81L130.96 1855.31L130.96 1780.31zM390.78 55.31L455.73 92.81L455.73 167.81L390.78 205.31L325.82 167.81L325.82 92.81zM325.82 167.81L390.78 205.31L390.78 280.31L325.82 317.81L260.87 280.31L260.87 205.31zM325.82 392.81L390.78 430.31L390.78 505.31L325.82 542.81L260.87 505.31L260.87 430.31zM325.82 617.81L390.78 655.31L390.78 730.31L325.82 767.81L260.87 730.31L260.87 655.31zM325.82 842.81L390.78 880.31L390.78 955.31L325.82 992.81L260.87 955.31L260.87 880.31zM390.78 955.31L455.73 992.81L455.73 1067.81L390.78 1105.31L325.82 1067.81L325.82 992.81zM390.78 1405.31L455.73 1442.81L455.73 1517.81L390.78 1555.31L325.82 1517.81L325.82 1442.81zM325.82 1742.81L390.78 1780.31L390.78 1855.31L325.82 1892.81L260.87 1855.31L260.87 1780.31zM455.73 -57.19L520.69 -19.69L520.69 55.31L455.73 92.81L390.78 55.31L390.78 -19.69zM520.69 55.31L585.64 92.81L585.64 167.81L520.69 205.31L455.73 167.81L455.73 92.81zM455.73 167.81L520.69 205.31L520.69 280.31L455.73 317.81L390.78 280.31L390.78 205.31zM520.69 505.31L585.64 542.81L585.64 617.81L520.69 655.31L455.73 617.81L455.73 542.81zM455.73 617.81L520.69 655.31L520.69 730.31L455.73 767.81L390.78 730.31L390.78 655.31zM455.73 842.81L520.69 880.31L520.69 955.31L455.73 992.81L390.78 955.31L390.78 880.31zM520.69 1405.31L585.64 1442.81L585.64 1517.81L520.69 1555.31L455.73 1517.81L455.73 1442.81zM455.73 1517.81L520.69 1555.31L520.69 1630.31L455.73 1667.81L390.78 1630.31L390.78 1555.31zM455.73 1742.81L520.69 1780.31L520.69 1855.31L455.73 1892.81L390.78 1855.31L390.78 1780.31zM520.69 1855.31L585.64 1892.81L585.64 1967.81L520.69 2005.31L455.73 1967.81L455.73 1892.81zM650.59 55.31L715.55 92.81L715.55 167.81L650.59 205.31L585.64 167.81L585.64 92.81zM585.64 167.81L650.59 205.31L650.59 280.31L585.64 317.81L520.69 280.31L520.69 205.31zM650.59 280.31L715.55 317.81L715.55 392.81L650.59 430.31L585.64 392.81L585.64 317.81zM650.59 505.31L715.55 542.81L715.55 617.81L650.59 655.31L585.64 617.81L585.64 542.81zM585.64 1067.81L650.59 1105.31L650.59 1180.31L585.64 1217.81L520.69 1180.31L520.69 1105.31zM585.64 1292.81L650.59 1330.31L650.59 1405.31L585.64 1442.81L520.69 1405.31L520.69 1330.31zM650.59 1405.31L715.55 1442.81L715.55 1517.81L650.59 1555.31L585.64 1517.81L585.64 1442.81zM585.64 1517.81L650.59 1555.31L650.59 1630.31L585.64 1667.81L520.69 1630.31L520.69 1555.31zM650.59 1630.31L715.55 1667.81L715.55 1742.81L650.59 1780.31L585.64 1742.81L585.64 1667.81zM715.55 -57.19L780.5 -19.69L780.5 55.31L715.55 92.81L650.59 55.31L650.59 -19.69zM780.5 55.31L845.46 92.81L845.46 167.81L780.5 205.31L715.55 167.81L715.55 92.81zM780.5 280.31L845.46 317.81L845.46 392.81L780.5 430.31L715.55 392.81L715.55 317.81zM715.55 392.81L780.5 430.31L780.5 505.31L715.55 542.81L650.59 505.31L650.59 430.31zM780.5 505.31L845.46 542.81L845.46 617.81L780.5 655.31L715.55 617.81L715.55 542.81zM780.5 955.31L845.46 992.81L845.46 1067.81L780.5 1105.31L715.55 1067.81L715.55 992.81zM715.55 1292.81L780.5 1330.31L780.5 1405.31L715.55 1442.81L650.59 1405.31L650.59 1330.31zM780.5 1630.31L845.46 1667.81L845.46 1742.81L780.5 1780.31L715.55 1742.81L715.55 1667.81zM715.55 1742.81L780.5 1780.31L780.5 1855.31L715.55 1892.81L650.59 1855.31L650.59 1780.31zM845.45 167.81L910.41 205.31L910.41 280.31L845.45 317.81L780.5 280.31L780.5 205.31zM845.45 392.81L910.41 430.31L910.41 505.31L845.45 542.81L780.5 505.31L780.5 430.31zM910.41 505.31L975.36 542.81L975.36 617.81L910.41 655.31L845.45 617.81L845.45 542.81zM910.41 730.31L975.36 767.81L975.36 842.81L910.41 880.31L845.45 842.81L845.45 767.81zM845.45 842.81L910.41 880.31L910.41 955.31L845.45 992.81L780.5 955.31L780.5 880.31zM910.41 955.31L975.36 992.81L975.36 1067.81L910.41 1105.31L845.45 1067.81L845.45 992.81zM845.45 1067.81L910.41 1105.31L910.41 1180.31L845.45 1217.81L780.5 1180.31L780.5 1105.31zM845.45 1517.81L910.41 1555.31L910.41 1630.31L845.45 1667.81L780.5 1630.31L780.5 1555.31zM845.45 1742.81L910.41 1780.31L910.41 1855.31L845.45 1892.81L780.5 1855.31L780.5 1780.31zM910.41 1855.31L975.36 1892.81L975.36 1967.81L910.41 2005.31L845.45 1967.81L845.45 1892.81zM975.36 -57.19L1040.32 -19.69L1040.32 55.31L975.36 92.81L910.41 55.31L910.41 -19.69zM975.36 167.81L1040.32 205.31L1040.32 280.31L975.36 317.81L910.41 280.31L910.41 205.31zM1040.32 280.31L1105.27 317.81L1105.27 392.81L1040.32 430.31L975.36 392.81L975.36 317.81zM1040.32 505.31L1105.27 542.81L1105.27 617.81L1040.32 655.31L975.36 617.81L975.36 542.81zM975.36 617.81L1040.32 655.31L1040.32 730.31L975.36 767.81L910.41 730.31L910.41 655.31zM975.36 842.81L1040.32 880.31L1040.32 955.31L975.36 992.81L910.41 955.31L910.41 880.31zM975.36 1292.81L1040.32 1330.31L1040.32 1405.31L975.36 1442.81L910.41 1405.31L910.41 1330.31zM1040.32 1855.31L1105.27 1892.81L1105.27 1967.81L1040.32 2005.31L975.36 1967.81L975.36 1892.81zM1105.27 -57.19L1170.22 -19.69L1170.22 55.31L1105.27 92.81L1040.32 55.31L1040.32 -19.69zM1105.27 167.81L1170.22 205.31L1170.22 280.31L1105.27 317.81L1040.32 280.31L1040.32 205.31zM1170.22 1180.31L1235.18 1217.81L1235.18 1292.81L1170.22 1330.31L1105.27 1292.81L1105.27 1217.81zM1105.27 1517.81L1170.22 1555.31L1170.22 1630.31L1105.27 1667.81L1040.32 1630.31L1040.32 1555.31zM1105.27 1742.81L1170.22 1780.31L1170.22 1855.31L1105.27 1892.81L1040.32 1855.31L1040.32 1780.31zM1170.22 1855.31L1235.18 1892.81L1235.18 1967.81L1170.22 2005.31L1105.27 1967.81L1105.27 1892.81z" stroke="#03305d" stroke-width="2"></path><path d="M58.51 -57.19 a7.5 7.5 0 1 0 15 0 a7.5 7.5 0 1 0 -15 0zM123.46 -19.69 a7.5 7.5 0 1 0 15 0 a7.5 7.5 0 1 0 -15 0zM123.46 55.31 a7.5 7.5 0 1 0 15 0 a7.5 7.5 0 1 0 -15 0zM58.51 92.81 a7.5 7.5 0 1 0 15 0 a7.5 7.5 0 1 0 -15 0zM-6.44 55.31 a7.5 7.5 0 1 0 15 0 a7.5 7.5 0 1 0 -15 0zM-6.44 -19.69 a7.5 7.5 0 1 0 15 0 a7.5 7.5 0 1 0 -15 0zM188.42 92.81 a7.5 7.5 0 1 0 15 0 a7.5 7.5 0 1 0 -15 0zM188.42 167.81 a7.5 7.5 0 1 0 15 0 a7.5 7.5 0 1 0 -15 0zM123.46 205.31 a7.5 7.5 0 1 0 15 0 a7.5 7.5 0 1 0 -15 0zM58.51 167.81 a7.5 7.5 0 1 0 15 0 a7.5 7.5 0 1 0 -15 0zM123.46 280.31 a7.5 7.5 0 1 0 15 0 a7.5 7.5 0 1 0 -15 0zM58.51 317.81 a7.5 7.5 0 1 0 15 0 a7.5 7.5 0 1 0 -15 0zM-6.44 280.31 a7.5 7.5 0 1 0 15 0 a7.5 7.5 0 1 0 -15 0zM-6.44 205.31 a7.5 7.5 0 1 0 15 0 a7.5 7.5 0 1 0 -15 0zM58.51 392.81 a7.5 7.5 0 1 0 15 0 a7.5 7.5 0 1 0 -15 0zM123.46 430.31 a7.5 7.5 0 1 0 15 0 a7.5 7.5 0 1 0 -15 0zM123.46 505.31 a7.5 7.5 0 1 0 15 0 a7.5 7.5 0 1 0 -15 0zM58.51 542.81 a7.5 7.5 0 1 0 15 0 a7.5 7.5 0 1 0 -15 0zM-6.44 505.31 a7.5 7.5 0 1 0 15 0 a7.5 7.5 0 1 0 -15 0zM-6.44 430.31 a7.5 7.5 0 1 0 15 0 a7.5 7.5 0 1 0 -15 0zM188.42 542.81 a7.5 7.5 0 1 0 15 0 a7.5 7.5 0 1 0 -15 0zM188.42 617.81 a7.5 7.5 0 1 0 15 0 a7.5 7.5 0 1 0 -15 0zM123.46 655.31 a7.5 7.5 0 1 0 15 0 a7.5 7.5 0 1 0 -15 0zM58.51 617.81 a7.5 7.5 0 1 0 15 0 a7.5 7.5 0 1 0 -15 0zM123.46 730.31 a7.5 7.5 0 1 0 15 0 a7.5 7.5 0 1 0 -15 0zM188.42 767.81 a7.5 7.5 0 1 0 15 0 a7.5 7.5 0 1 0 -15 0zM188.42 842.81 a7.5 7.5 0 1 0 15 0 a7.5 7.5 0 1 0 -15 0zM123.46 880.31 a7.5 7.5 0 1 0 15 0 a7.5 7.5 0 1 0 -15 0zM58.51 842.81 a7.5 7.5 0 1 0 15 0 a7.5 7.5 0 1 0 -15 0zM58.51 767.81 a7.5 7.5 0 1 0 15 0 a7.5 7.5 0 1 0 -15 0zM123.46 955.31 a7.5 7.5 0 1 0 15 0 a7.5 7.5 0 1 0 -15 0zM58.51 992.81 a7.5 7.5 0 1 0 15 0 a7.5 7.5 0 1 0 -15 0zM-6.44 955.31 a7.5 7.5 0 1 0 15 0 a7.5 7.5 0 1 0 -15 0zM-6.44 880.31 a7.5 7.5 0 1 0 15 0 a7.5 7.5 0 1 0 -15 0zM58.51 1067.81 a7.5 7.5 0 1 0 15 0 a7.5 7.5 0 1 0 -15 0zM123.46 1105.31 a7.5 7.5 0 1 0 15 0 a7.5 7.5 0 1 0 -15 0zM123.46 1180.31 a7.5 7.5 0 1 0 15 0 a7.5 7.5 0 1 0 -15 0zM58.51 1217.81 a7.5 7.5 0 1 0 15 0 a7.5 7.5 0 1 0 -15 0zM-6.44 1180.31 a7.5 7.5 0 1 0 15 0 a7.5 7.5 0 1 0 -15 0zM-6.44 1105.31 a7.5 7.5 0 1 0 15 0 a7.5 7.5 0 1 0 -15 0zM188.42 1217.81 a7.5 7.5 0 1 0 15 0 a7.5 7.5 0 1 0 -15 0zM188.42 1292.81 a7.5 7.5 0 1 0 15 0 a7.5 7.5 0 1 0 -15 0zM123.46 1330.31 a7.5 7.5 0 1 0 15 0 a7.5 7.5 0 1 0 -15 0zM58.51 1292.81 a7.5 7.5 0 1 0 15 0 a7.5 7.5 0 1 0 -15 0zM58.51 1517.81 a7.5 7.5 0 1 0 15 0 a7.5 7.5 0 1 0 -15 0zM123.46 1555.31 a7.5 7.5 0 1 0 15 0 a7.5 7.5 0 1 0 -15 0zM123.46 1630.31 a7.5 7.5 0 1 0 15 0 a7.5 7.5 0 1 0 -15 0zM58.51 1667.81 a7.5 7.5 0 1 0 15 0 a7.5 7.5 0 1 0 -15 0zM-6.44 1630.31 a7.5 7.5 0 1 0 15 0 a7.5 7.5 0 1 0 -15 0zM-6.44 1555.31 a7.5 7.5 0 1 0 15 0 a7.5 7.5 0 1 0 -15 0zM58.51 1742.81 a7.5 7.5 0 1 0 15 0 a7.5 7.5 0 1 0 -15 0zM123.46 1780.31 a7.5 7.5 0 1 0 15 0 a7.5 7.5 0 1 0 -15 0zM123.46 1855.31 a7.5 7.5 0 1 0 15 0 a7.5 7.5 0 1 0 -15 0zM58.51 1892.81 a7.5 7.5 0 1 0 15 0 a7.5 7.5 0 1 0 -15 0zM-6.44 1855.31 a7.5 7.5 0 1 0 15 0 a7.5 7.5 0 1 0 -15 0zM-6.44 1780.31 a7.5 7.5 0 1 0 15 0 a7.5 7.5 0 1 0 -15 0zM188.42 1892.81 a7.5 7.5 0 1 0 15 0 a7.5 7.5 0 1 0 -15 0zM188.42 1967.81 a7.5 7.5 0 1 0 15 0 a7.5 7.5 0 1 0 -15 0zM123.46 2005.31 a7.5 7.5 0 1 0 15 0 a7.5 7.5 0 1 0 -15 0zM58.51 1967.81 a7.5 7.5 0 1 0 15 0 a7.5 7.5 0 1 0 -15 0zM253.37 55.31 a7.5 7.5 0 1 0 15 0 a7.5 7.5 0 1 0 -15 0zM318.32 92.81 a7.5 7.5 0 1 0 15 0 a7.5 7.5 0 1 0 -15 0zM318.32 167.81 a7.5 7.5 0 1 0 15 0 a7.5 7.5 0 1 0 -15 0zM253.37 205.31 a7.5 7.5 0 1 0 15 0 a7.5 7.5 0 1 0 -15 0zM253.37 505.31 a7.5 7.5 0 1 0 15 0 a7.5 7.5 0 1 0 -15 0zM318.32 542.81 a7.5 7.5 0 1 0 15 0 a7.5 7.5 0 1 0 -15 0zM318.32 617.81 a7.5 7.5 0 1 0 15 0 a7.5 7.5 0 1 0 -15 0zM253.37 655.31 a7.5 7.5 0 1 0 15 0 a7.5 7.5 0 1 0 -15 0zM253.37 730.31 a7.5 7.5 0 1 0 15 0 a7.5 7.5 0 1 0 -15 0zM318.32 767.81 a7.5 7.5 0 1 0 15 0 a7.5 7.5 0 1 0 -15 0zM318.32 842.81 a7.5 7.5 0 1 0 15 0 a7.5 7.5 0 1 0 -15 0zM253.37 880.31 a7.5 7.5 0 1 0 15 0 a7.5 7.5 0 1 0 -15 0zM253.37 1180.31 a7.5 7.5 0 1 0 15 0 a7.5 7.5 0 1 0 -15 0zM318.32 1217.81 a7.5 7.5 0 1 0 15 0 a7.5 7.5 0 1 0 -15 0zM318.32 1292.81 a7.5 7.5 0 1 0 15 0 a7.5 7.5 0 1 0 -15 0zM253.37 1330.31 a7.5 7.5 0 1 0 15 0 a7.5 7.5 0 1 0 -15 0zM188.42 1517.81 a7.5 7.5 0 1 0 15 0 a7.5 7.5 0 1 0 -15 0zM253.37 1555.31 a7.5 7.5 0 1 0 15 0 a7.5 7.5 0 1 0 -15 0zM253.37 1630.31 a7.5 7.5 0 1 0 15 0 a7.5 7.5 0 1 0 -15 0zM188.42 1667.81 a7.5 7.5 0 1 0 15 0 a7.5 7.5 0 1 0 -15 0zM318.32 1667.81 a7.5 7.5 0 1 0 15 0 a7.5 7.5 0 1 0 -15 0zM318.32 1742.81 a7.5 7.5 0 1 0 15 0 a7.5 7.5 0 1 0 -15 0zM253.37 1780.31 a7.5 7.5 0 1 0 15 0 a7.5 7.5 0 1 0 -15 0zM188.42 1742.81 a7.5 7.5 0 1 0 15 0 a7.5 7.5 0 1 0 -15 0zM253.37 1855.31 a7.5 7.5 0 1 0 15 0 a7.5 7.5 0 1 0 -15 0zM383.28 55.31 a7.5 7.5 0 1 0 15 0 a7.5 7.5 0 1 0 -15 0zM448.23 92.81 a7.5 7.5 0 1 0 15 0 a7.5 7.5 0 1 0 -15 0zM448.23 167.81 a7.5 7.5 0 1 0 15 0 a7.5 7.5 0 1 0 -15 0zM383.28 205.31 a7.5 7.5 0 1 0 15 0 a7.5 7.5 0 1 0 -15 0zM383.28 280.31 a7.5 7.5 0 1 0 15 0 a7.5 7.5 0 1 0 -15 0zM318.32 317.81 a7.5 7.5 0 1 0 15 0 a7.5 7.5 0 1 0 -15 0zM253.37 280.31 a7.5 7.5 0 1 0 15 0 a7.5 7.5 0 1 0 -15 0zM318.32 392.81 a7.5 7.5 0 1 0 15 0 a7.5 7.5 0 1 0 -15 0zM383.28 430.31 a7.5 7.5 0 1 0 15 0 a7.5 7.5 0 1 0 -15 0zM383.28 505.31 a7.5 7.5 0 1 0 15 0 a7.5 7.5 0 1 0 -15 0zM253.37 430.31 a7.5 7.5 0 1 0 15 0 a7.5 7.5 0 1 0 -15 0zM383.28 655.31 a7.5 7.5 0 1 0 15 0 a7.5 7.5 0 1 0 -15 0zM383.28 730.31 a7.5 7.5 0 1 0 15 0 a7.5 7.5 0 1 0 -15 0zM383.28 880.31 a7.5 7.5 0 1 0 15 0 a7.5 7.5 0 1 0 -15 0zM383.28 955.31 a7.5 7.5 0 1 0 15 0 a7.5 7.5 0 1 0 -15 0zM318.32 992.81 a7.5 7.5 0 1 0 15 0 a7.5 7.5 0 1 0 -15 0zM253.37 955.31 a7.5 7.5 0 1 0 15 0 a7.5 7.5 0 1 0 -15 0zM448.23 992.81 a7.5 7.5 0 1 0 15 0 a7.5 7.5 0 1 0 -15 0zM448.23 1067.81 a7.5 7.5 0 1 0 15 0 a7.5 7.5 0 1 0 -15 0zM383.28 1105.31 a7.5 7.5 0 1 0 15 0 a7.5 7.5 0 1 0 -15 0zM318.32 1067.81 a7.5 7.5 0 1 0 15 0 a7.5 7.5 0 1 0 -15 0zM383.28 1405.31 a7.5 7.5 0 1 0 15 0 a7.5 7.5 0 1 0 -15 0zM448.23 1442.81 a7.5 7.5 0 1 0 15 0 a7.5 7.5 0 1 0 -15 0zM448.23 1517.81 a7.5 7.5 0 1 0 15 0 a7.5 7.5 0 1 0 -15 0zM383.28 1555.31 a7.5 7.5 0 1 0 15 0 a7.5 7.5 0 1 0 -15 0zM318.32 1517.81 a7.5 7.5 0 1 0 15 0 a7.5 7.5 0 1 0 -15 0zM318.32 1442.81 a7.5 7.5 0 1 0 15 0 a7.5 7.5 0 1 0 -15 0zM383.28 1780.31 a7.5 7.5 0 1 0 15 0 a7.5 7.5 0 1 0 -15 0zM383.28 1855.31 a7.5 7.5 0 1 0 15 0 a7.5 7.5 0 1 0 -15 0zM318.32 1892.81 a7.5 7.5 0 1 0 15 0 a7.5 7.5 0 1 0 -15 0zM448.23 -57.19 a7.5 7.5 0 1 0 15 0 a7.5 7.5 0 1 0 -15 0zM513.19 -19.69 a7.5 7.5 0 1 0 15 0 a7.5 7.5 0 1 0 -15 0zM513.19 55.31 a7.5 7.5 0 1 0 15 0 a7.5 7.5 0 1 0 -15 0zM383.28 -19.69 a7.5 7.5 0 1 0 15 0 a7.5 7.5 0 1 0 -15 0zM578.14 92.81 a7.5 7.5 0 1 0 15 0 a7.5 7.5 0 1 0 -15 0zM578.14 167.81 a7.5 7.5 0 1 0 15 0 a7.5 7.5 0 1 0 -15 0zM513.19 205.31 a7.5 7.5 0 1 0 15 0 a7.5 7.5 0 1 0 -15 0zM513.19 280.31 a7.5 7.5 0 1 0 15 0 a7.5 7.5 0 1 0 -15 0zM448.23 317.81 a7.5 7.5 0 1 0 15 0 a7.5 7.5 0 1 0 -15 0zM513.19 505.31 a7.5 7.5 0 1 0 15 0 a7.5 7.5 0 1 0 -15 0zM578.14 542.81 a7.5 7.5 0 1 0 15 0 a7.5 7.5 0 1 0 -15 0zM578.14 617.81 a7.5 7.5 0 1 0 15 0 a7.5 7.5 0 1 0 -15 0zM513.19 655.31 a7.5 7.5 0 1 0 15 0 a7.5 7.5 0 1 0 -15 0zM448.23 617.81 a7.5 7.5 0 1 0 15 0 a7.5 7.5 0 1 0 -15 0zM448.23 542.81 a7.5 7.5 0 1 0 15 0 a7.5 7.5 0 1 0 -15 0zM513.19 730.31 a7.5 7.5 0 1 0 15 0 a7.5 7.5 0 1 0 -15 0zM448.23 767.81 a7.5 7.5 0 1 0 15 0 a7.5 7.5 0 1 0 -15 0zM448.23 842.81 a7.5 7.5 0 1 0 15 0 a7.5 7.5 0 1 0 -15 0zM513.19 880.31 a7.5 7.5 0 1 0 15 0 a7.5 7.5 0 1 0 -15 0zM513.19 955.31 a7.5 7.5 0 1 0 15 0 a7.5 7.5 0 1 0 -15 0zM513.19 1405.31 a7.5 7.5 0 1 0 15 0 a7.5 7.5 0 1 0 -15 0zM578.14 1442.81 a7.5 7.5 0 1 0 15 0 a7.5 7.5 0 1 0 -15 0zM578.14 1517.81 a7.5 7.5 0 1 0 15 0 a7.5 7.5 0 1 0 -15 0zM513.19 1555.31 a7.5 7.5 0 1 0 15 0 a7.5 7.5 0 1 0 -15 0zM513.19 1630.31 a7.5 7.5 0 1 0 15 0 a7.5 7.5 0 1 0 -15 0zM448.23 1667.81 a7.5 7.5 0 1 0 15 0 a7.5 7.5 0 1 0 -15 0zM383.28 1630.31 a7.5 7.5 0 1 0 15 0 a7.5 7.5 0 1 0 -15 0zM448.23 1742.81 a7.5 7.5 0 1 0 15 0 a7.5 7.5 0 1 0 -15 0zM513.19 1780.31 a7.5 7.5 0 1 0 15 0 a7.5 7.5 0 1 0 -15 0zM513.19 1855.31 a7.5 7.5 0 1 0 15 0 a7.5 7.5 0 1 0 -15 0zM448.23 1892.81 a7.5 7.5 0 1 0 15 0 a7.5 7.5 0 1 0 -15 0zM578.14 1892.81 a7.5 7.5 0 1 0 15 0 a7.5 7.5 0 1 0 -15 0zM578.14 1967.81 a7.5 7.5 0 1 0 15 0 a7.5 7.5 0 1 0 -15 0zM513.19 2005.31 a7.5 7.5 0 1 0 15 0 a7.5 7.5 0 1 0 -15 0zM448.23 1967.81 a7.5 7.5 0 1 0 15 0 a7.5 7.5 0 1 0 -15 0zM643.09 55.31 a7.5 7.5 0 1 0 15 0 a7.5 7.5 0 1 0 -15 0zM708.05 92.81 a7.5 7.5 0 1 0 15 0 a7.5 7.5 0 1 0 -15 0zM708.05 167.81 a7.5 7.5 0 1 0 15 0 a7.5 7.5 0 1 0 -15 0zM643.09 205.31 a7.5 7.5 0 1 0 15 0 a7.5 7.5 0 1 0 -15 0zM643.09 280.31 a7.5 7.5 0 1 0 15 0 a7.5 7.5 0 1 0 -15 0zM578.14 317.81 a7.5 7.5 0 1 0 15 0 a7.5 7.5 0 1 0 -15 0zM708.05 317.81 a7.5 7.5 0 1 0 15 0 a7.5 7.5 0 1 0 -15 0zM708.05 392.81 a7.5 7.5 0 1 0 15 0 a7.5 7.5 0 1 0 -15 0zM643.09 430.31 a7.5 7.5 0 1 0 15 0 a7.5 7.5 0 1 0 -15 0zM578.14 392.81 a7.5 7.5 0 1 0 15 0 a7.5 7.5 0 1 0 -15 0zM643.09 505.31 a7.5 7.5 0 1 0 15 0 a7.5 7.5 0 1 0 -15 0zM708.05 542.81 a7.5 7.5 0 1 0 15 0 a7.5 7.5 0 1 0 -15 0zM708.05 617.81 a7.5 7.5 0 1 0 15 0 a7.5 7.5 0 1 0 -15 0zM643.09 655.31 a7.5 7.5 0 1 0 15 0 a7.5 7.5 0 1 0 -15 0zM578.14 1067.81 a7.5 7.5 0 1 0 15 0 a7.5 7.5 0 1 0 -15 0zM643.09 1105.31 a7.5 7.5 0 1 0 15 0 a7.5 7.5 0 1 0 -15 0zM643.09 1180.31 a7.5 7.5 0 1 0 15 0 a7.5 7.5 0 1 0 -15 0zM578.14 1217.81 a7.5 7.5 0 1 0 15 0 a7.5 7.5 0 1 0 -15 0zM513.19 1180.31 a7.5 7.5 0 1 0 15 0 a7.5 7.5 0 1 0 -15 0zM513.19 1105.31 a7.5 7.5 0 1 0 15 0 a7.5 7.5 0 1 0 -15 0zM578.14 1292.81 a7.5 7.5 0 1 0 15 0 a7.5 7.5 0 1 0 -15 0zM643.09 1330.31 a7.5 7.5 0 1 0 15 0 a7.5 7.5 0 1 0 -15 0zM643.09 1405.31 a7.5 7.5 0 1 0 15 0 a7.5 7.5 0 1 0 -15 0zM513.19 1330.31 a7.5 7.5 0 1 0 15 0 a7.5 7.5 0 1 0 -15 0zM708.05 1442.81 a7.5 7.5 0 1 0 15 0 a7.5 7.5 0 1 0 -15 0zM708.05 1517.81 a7.5 7.5 0 1 0 15 0 a7.5 7.5 0 1 0 -15 0zM643.09 1555.31 a7.5 7.5 0 1 0 15 0 a7.5 7.5 0 1 0 -15 0zM643.09 1630.31 a7.5 7.5 0 1 0 15 0 a7.5 7.5 0 1 0 -15 0zM578.14 1667.81 a7.5 7.5 0 1 0 15 0 a7.5 7.5 0 1 0 -15 0zM708.05 1667.81 a7.5 7.5 0 1 0 15 0 a7.5 7.5 0 1 0 -15 0zM708.05 1742.81 a7.5 7.5 0 1 0 15 0 a7.5 7.5 0 1 0 -15 0zM643.09 1780.31 a7.5 7.5 0 1 0 15 0 a7.5 7.5 0 1 0 -15 0zM578.14 1742.81 a7.5 7.5 0 1 0 15 0 a7.5 7.5 0 1 0 -15 0zM708.05 -57.19 a7.5 7.5 0 1 0 15 0 a7.5 7.5 0 1 0 -15 0zM773 -19.69 a7.5 7.5 0 1 0 15 0 a7.5 7.5 0 1 0 -15 0zM773 55.31 a7.5 7.5 0 1 0 15 0 a7.5 7.5 0 1 0 -15 0zM643.09 -19.69 a7.5 7.5 0 1 0 15 0 a7.5 7.5 0 1 0 -15 0zM837.96 92.81 a7.5 7.5 0 1 0 15 0 a7.5 7.5 0 1 0 -15 0zM837.96 167.81 a7.5 7.5 0 1 0 15 0 a7.5 7.5 0 1 0 -15 0zM773 205.31 a7.5 7.5 0 1 0 15 0 a7.5 7.5 0 1 0 -15 0zM773 280.31 a7.5 7.5 0 1 0 15 0 a7.5 7.5 0 1 0 -15 0zM837.96 317.81 a7.5 7.5 0 1 0 15 0 a7.5 7.5 0 1 0 -15 0zM837.96 392.81 a7.5 7.5 0 1 0 15 0 a7.5 7.5 0 1 0 -15 0zM773 430.31 a7.5 7.5 0 1 0 15 0 a7.5 7.5 0 1 0 -15 0zM773 505.31 a7.5 7.5 0 1 0 15 0 a7.5 7.5 0 1 0 -15 0zM837.96 542.81 a7.5 7.5 0 1 0 15 0 a7.5 7.5 0 1 0 -15 0zM837.96 617.81 a7.5 7.5 0 1 0 15 0 a7.5 7.5 0 1 0 -15 0zM773 655.31 a7.5 7.5 0 1 0 15 0 a7.5 7.5 0 1 0 -15 0zM773 955.31 a7.5 7.5 0 1 0 15 0 a7.5 7.5 0 1 0 -15 0zM837.96 992.81 a7.5 7.5 0 1 0 15 0 a7.5 7.5 0 1 0 -15 0zM837.96 1067.81 a7.5 7.5 0 1 0 15 0 a7.5 7.5 0 1 0 -15 0zM773 1105.31 a7.5 7.5 0 1 0 15 0 a7.5 7.5 0 1 0 -15 0zM708.05 1067.81 a7.5 7.5 0 1 0 15 0 a7.5 7.5 0 1 0 -15 0zM708.05 992.81 a7.5 7.5 0 1 0 15 0 a7.5 7.5 0 1 0 -15 0zM708.05 1292.81 a7.5 7.5 0 1 0 15 0 a7.5 7.5 0 1 0 -15 0zM773 1330.31 a7.5 7.5 0 1 0 15 0 a7.5 7.5 0 1 0 -15 0zM773 1405.31 a7.5 7.5 0 1 0 15 0 a7.5 7.5 0 1 0 -15 0zM773 1630.31 a7.5 7.5 0 1 0 15 0 a7.5 7.5 0 1 0 -15 0zM837.96 1667.81 a7.5 7.5 0 1 0 15 0 a7.5 7.5 0 1 0 -15 0zM837.96 1742.81 a7.5 7.5 0 1 0 15 0 a7.5 7.5 0 1 0 -15 0zM773 1780.31 a7.5 7.5 0 1 0 15 0 a7.5 7.5 0 1 0 -15 0zM773 1855.31 a7.5 7.5 0 1 0 15 0 a7.5 7.5 0 1 0 -15 0zM708.05 1892.81 a7.5 7.5 0 1 0 15 0 a7.5 7.5 0 1 0 -15 0zM643.09 1855.31 a7.5 7.5 0 1 0 15 0 a7.5 7.5 0 1 0 -15 0zM837.95 167.81 a7.5 7.5 0 1 0 15 0 a7.5 7.5 0 1 0 -15 0zM902.91 205.31 a7.5 7.5 0 1 0 15 0 a7.5 7.5 0 1 0 -15 0zM902.91 280.31 a7.5 7.5 0 1 0 15 0 a7.5 7.5 0 1 0 -15 0zM837.95 317.81 a7.5 7.5 0 1 0 15 0 a7.5 7.5 0 1 0 -15 0zM837.95 392.81 a7.5 7.5 0 1 0 15 0 a7.5 7.5 0 1 0 -15 0zM902.91 430.31 a7.5 7.5 0 1 0 15 0 a7.5 7.5 0 1 0 -15 0zM902.91 505.31 a7.5 7.5 0 1 0 15 0 a7.5 7.5 0 1 0 -15 0zM837.95 542.81 a7.5 7.5 0 1 0 15 0 a7.5 7.5 0 1 0 -15 0zM967.86 542.81 a7.5 7.5 0 1 0 15 0 a7.5 7.5 0 1 0 -15 0zM967.86 617.81 a7.5 7.5 0 1 0 15 0 a7.5 7.5 0 1 0 -15 0zM902.91 655.31 a7.5 7.5 0 1 0 15 0 a7.5 7.5 0 1 0 -15 0zM837.95 617.81 a7.5 7.5 0 1 0 15 0 a7.5 7.5 0 1 0 -15 0zM902.91 730.31 a7.5 7.5 0 1 0 15 0 a7.5 7.5 0 1 0 -15 0zM967.86 767.81 a7.5 7.5 0 1 0 15 0 a7.5 7.5 0 1 0 -15 0zM967.86 842.81 a7.5 7.5 0 1 0 15 0 a7.5 7.5 0 1 0 -15 0zM902.91 880.31 a7.5 7.5 0 1 0 15 0 a7.5 7.5 0 1 0 -15 0zM837.95 842.81 a7.5 7.5 0 1 0 15 0 a7.5 7.5 0 1 0 -15 0zM837.95 767.81 a7.5 7.5 0 1 0 15 0 a7.5 7.5 0 1 0 -15 0zM902.91 955.31 a7.5 7.5 0 1 0 15 0 a7.5 7.5 0 1 0 -15 0zM837.95 992.81 a7.5 7.5 0 1 0 15 0 a7.5 7.5 0 1 0 -15 0zM773 880.31 a7.5 7.5 0 1 0 15 0 a7.5 7.5 0 1 0 -15 0zM967.86 992.81 a7.5 7.5 0 1 0 15 0 a7.5 7.5 0 1 0 -15 0zM967.86 1067.81 a7.5 7.5 0 1 0 15 0 a7.5 7.5 0 1 0 -15 0zM902.91 1105.31 a7.5 7.5 0 1 0 15 0 a7.5 7.5 0 1 0 -15 0zM837.95 1067.81 a7.5 7.5 0 1 0 15 0 a7.5 7.5 0 1 0 -15 0zM902.91 1180.31 a7.5 7.5 0 1 0 15 0 a7.5 7.5 0 1 0 -15 0zM837.95 1217.81 a7.5 7.5 0 1 0 15 0 a7.5 7.5 0 1 0 -15 0zM773 1180.31 a7.5 7.5 0 1 0 15 0 a7.5 7.5 0 1 0 -15 0zM837.95 1517.81 a7.5 7.5 0 1 0 15 0 a7.5 7.5 0 1 0 -15 0zM902.91 1555.31 a7.5 7.5 0 1 0 15 0 a7.5 7.5 0 1 0 -15 0zM902.91 1630.31 a7.5 7.5 0 1 0 15 0 a7.5 7.5 0 1 0 -15 0zM837.95 1667.81 a7.5 7.5 0 1 0 15 0 a7.5 7.5 0 1 0 -15 0zM773 1555.31 a7.5 7.5 0 1 0 15 0 a7.5 7.5 0 1 0 -15 0zM837.95 1742.81 a7.5 7.5 0 1 0 15 0 a7.5 7.5 0 1 0 -15 0zM902.91 1780.31 a7.5 7.5 0 1 0 15 0 a7.5 7.5 0 1 0 -15 0zM902.91 1855.31 a7.5 7.5 0 1 0 15 0 a7.5 7.5 0 1 0 -15 0zM837.95 1892.81 a7.5 7.5 0 1 0 15 0 a7.5 7.5 0 1 0 -15 0zM967.86 1892.81 a7.5 7.5 0 1 0 15 0 a7.5 7.5 0 1 0 -15 0zM967.86 1967.81 a7.5 7.5 0 1 0 15 0 a7.5 7.5 0 1 0 -15 0zM902.91 2005.31 a7.5 7.5 0 1 0 15 0 a7.5 7.5 0 1 0 -15 0zM837.95 1967.81 a7.5 7.5 0 1 0 15 0 a7.5 7.5 0 1 0 -15 0zM967.86 -57.19 a7.5 7.5 0 1 0 15 0 a7.5 7.5 0 1 0 -15 0zM1032.82 -19.69 a7.5 7.5 0 1 0 15 0 a7.5 7.5 0 1 0 -15 0zM1032.82 55.31 a7.5 7.5 0 1 0 15 0 a7.5 7.5 0 1 0 -15 0zM967.86 92.81 a7.5 7.5 0 1 0 15 0 a7.5 7.5 0 1 0 -15 0zM902.91 55.31 a7.5 7.5 0 1 0 15 0 a7.5 7.5 0 1 0 -15 0zM902.91 -19.69 a7.5 7.5 0 1 0 15 0 a7.5 7.5 0 1 0 -15 0zM967.86 167.81 a7.5 7.5 0 1 0 15 0 a7.5 7.5 0 1 0 -15 0zM1032.82 205.31 a7.5 7.5 0 1 0 15 0 a7.5 7.5 0 1 0 -15 0zM1032.82 280.31 a7.5 7.5 0 1 0 15 0 a7.5 7.5 0 1 0 -15 0zM967.86 317.81 a7.5 7.5 0 1 0 15 0 a7.5 7.5 0 1 0 -15 0zM1097.77 317.81 a7.5 7.5 0 1 0 15 0 a7.5 7.5 0 1 0 -15 0zM1097.77 392.81 a7.5 7.5 0 1 0 15 0 a7.5 7.5 0 1 0 -15 0zM1032.82 430.31 a7.5 7.5 0 1 0 15 0 a7.5 7.5 0 1 0 -15 0zM967.86 392.81 a7.5 7.5 0 1 0 15 0 a7.5 7.5 0 1 0 -15 0zM1032.82 505.31 a7.5 7.5 0 1 0 15 0 a7.5 7.5 0 1 0 -15 0zM1097.77 542.81 a7.5 7.5 0 1 0 15 0 a7.5 7.5 0 1 0 -15 0zM1097.77 617.81 a7.5 7.5 0 1 0 15 0 a7.5 7.5 0 1 0 -15 0zM1032.82 655.31 a7.5 7.5 0 1 0 15 0 a7.5 7.5 0 1 0 -15 0zM1032.82 730.31 a7.5 7.5 0 1 0 15 0 a7.5 7.5 0 1 0 -15 0zM1032.82 880.31 a7.5 7.5 0 1 0 15 0 a7.5 7.5 0 1 0 -15 0zM1032.82 955.31 a7.5 7.5 0 1 0 15 0 a7.5 7.5 0 1 0 -15 0zM967.86 1292.81 a7.5 7.5 0 1 0 15 0 a7.5 7.5 0 1 0 -15 0zM1032.82 1330.31 a7.5 7.5 0 1 0 15 0 a7.5 7.5 0 1 0 -15 0zM1032.82 1405.31 a7.5 7.5 0 1 0 15 0 a7.5 7.5 0 1 0 -15 0zM967.86 1442.81 a7.5 7.5 0 1 0 15 0 a7.5 7.5 0 1 0 -15 0zM902.91 1405.31 a7.5 7.5 0 1 0 15 0 a7.5 7.5 0 1 0 -15 0zM902.91 1330.31 a7.5 7.5 0 1 0 15 0 a7.5 7.5 0 1 0 -15 0zM1032.82 1855.31 a7.5 7.5 0 1 0 15 0 a7.5 7.5 0 1 0 -15 0zM1097.77 1892.81 a7.5 7.5 0 1 0 15 0 a7.5 7.5 0 1 0 -15 0zM1097.77 1967.81 a7.5 7.5 0 1 0 15 0 a7.5 7.5 0 1 0 -15 0zM1032.82 2005.31 a7.5 7.5 0 1 0 15 0 a7.5 7.5 0 1 0 -15 0zM1097.77 -57.19 a7.5 7.5 0 1 0 15 0 a7.5 7.5 0 1 0 -15 0zM1162.72 -19.69 a7.5 7.5 0 1 0 15 0 a7.5 7.5 0 1 0 -15 0zM1162.72 55.31 a7.5 7.5 0 1 0 15 0 a7.5 7.5 0 1 0 -15 0zM1097.77 92.81 a7.5 7.5 0 1 0 15 0 a7.5 7.5 0 1 0 -15 0zM1097.77 167.81 a7.5 7.5 0 1 0 15 0 a7.5 7.5 0 1 0 -15 0zM1162.72 205.31 a7.5 7.5 0 1 0 15 0 a7.5 7.5 0 1 0 -15 0zM1162.72 280.31 a7.5 7.5 0 1 0 15 0 a7.5 7.5 0 1 0 -15 0zM1162.72 1180.31 a7.5 7.5 0 1 0 15 0 a7.5 7.5 0 1 0 -15 0zM1227.68 1217.81 a7.5 7.5 0 1 0 15 0 a7.5 7.5 0 1 0 -15 0zM1227.68 1292.81 a7.5 7.5 0 1 0 15 0 a7.5 7.5 0 1 0 -15 0zM1162.72 1330.31 a7.5 7.5 0 1 0 15 0 a7.5 7.5 0 1 0 -15 0zM1097.77 1292.81 a7.5 7.5 0 1 0 15 0 a7.5 7.5 0 1 0 -15 0zM1097.77 1217.81 a7.5 7.5 0 1 0 15 0 a7.5 7.5 0 1 0 -15 0zM1097.77 1517.81 a7.5 7.5 0 1 0 15 0 a7.5 7.5 0 1 0 -15 0zM1162.72 1555.31 a7.5 7.5 0 1 0 15 0 a7.5 7.5 0 1 0 -15 0zM1162.72 1630.31 a7.5 7.5 0 1 0 15 0 a7.5 7.5 0 1 0 -15 0zM1097.77 1667.81 a7.5 7.5 0 1 0 15 0 a7.5 7.5 0 1 0 -15 0zM1032.82 1630.31 a7.5 7.5 0 1 0 15 0 a7.5 7.5 0 1 0 -15 0zM1032.82 1555.31 a7.5 7.5 0 1 0 15 0 a7.5 7.5 0 1 0 -15 0zM1097.77 1742.81 a7.5 7.5 0 1 0 15 0 a7.5 7.5 0 1 0 -15 0zM1162.72 1780.31 a7.5 7.5 0 1 0 15 0 a7.5 7.5 0 1 0 -15 0zM1162.72 1855.31 a7.5 7.5 0 1 0 15 0 a7.5 7.5 0 1 0 -15 0zM1032.82 1780.31 a7.5 7.5 0 1 0 15 0 a7.5 7.5 0 1 0 -15 0zM1227.68 1892.81 a7.5 7.5 0 1 0 15 0 a7.5 7.5 0 1 0 -15 0zM1227.68 1967.81 a7.5 7.5 0 1 0 15 0 a7.5 7.5 0 1 0 -15 0zM1162.72 2005.31 a7.5 7.5 0 1 0 15 0 a7.5 7.5 0 1 0 -15 0z" fill="#03305d"></path><path d="M35.13 103.21L78.43 128.21L78.43 178.21L35.13 203.21L-8.17 178.21L-8.17 128.21zM35.13 253.21L78.43 278.21L78.43 328.21L35.13 353.21L-8.17 328.21L-8.17 278.21zM78.43 328.21L121.74 353.21L121.74 403.21L78.43 428.21L35.13 403.21L35.13 353.21zM78.43 478.21L121.74 503.21L121.74 553.21L78.43 578.21L35.13 553.21L35.13 503.21zM35.13 1153.21L78.43 1178.21L78.43 1228.21L35.13 1253.21L-8.17 1228.21L-8.17 1178.21zM35.13 1303.21L78.43 1328.21L78.43 1378.21L35.13 1403.21L-8.17 1378.21L-8.17 1328.21zM78.43 1678.21L121.74 1703.21L121.74 1753.21L78.43 1778.21L35.13 1753.21L35.13 1703.21zM78.43 1828.21L121.74 1853.21L121.74 1903.21L78.43 1928.21L35.13 1903.21L35.13 1853.21zM165.04 178.21L208.34 203.21L208.34 253.21L165.04 278.21L121.74 253.21L121.74 203.21zM121.74 253.21L165.04 278.21L165.04 328.21L121.74 353.21L78.43 328.21L78.43 278.21zM165.04 328.21L208.34 353.21L208.34 403.21L165.04 428.21L121.74 403.21L121.74 353.21zM121.74 403.21L165.04 428.21L165.04 478.21L121.74 503.21L78.43 478.21L78.43 428.21zM165.04 478.21L208.34 503.21L208.34 553.21L165.04 578.21L121.74 553.21L121.74 503.21zM165.04 628.21L208.34 653.21L208.34 703.21L165.04 728.21L121.74 703.21L121.74 653.21zM165.04 778.21L208.34 803.21L208.34 853.21L165.04 878.21L121.74 853.21L121.74 803.21zM121.74 853.21L165.04 878.21L165.04 928.21L121.74 953.21L78.43 928.21L78.43 878.21zM165.04 928.21L208.34 953.21L208.34 1003.21L165.04 1028.21L121.74 1003.21L121.74 953.21zM121.74 1003.21L165.04 1028.21L165.04 1078.21L121.74 1103.21L78.43 1078.21L78.43 1028.21zM165.04 1078.21L208.34 1103.21L208.34 1153.21L165.04 1178.21L121.74 1153.21L121.74 1103.21zM165.04 1228.21L208.34 1253.21L208.34 1303.21L165.04 1328.21L121.74 1303.21L121.74 1253.21zM165.04 1528.21L208.34 1553.21L208.34 1603.21L165.04 1628.21L121.74 1603.21L121.74 1553.21zM121.74 1603.21L165.04 1628.21L165.04 1678.21L121.74 1703.21L78.43 1678.21L78.43 1628.21zM165.04 1678.21L208.34 1703.21L208.34 1753.21L165.04 1778.21L121.74 1753.21L121.74 1703.21zM121.74 1753.21L165.04 1778.21L165.04 1828.21L121.74 1853.21L78.43 1828.21L78.43 1778.21zM121.74 1903.21L165.04 1928.21L165.04 1978.21L121.74 2003.21L78.43 1978.21L78.43 1928.21zM208.34 -46.79L251.64 -21.79L251.64 28.21L208.34 53.21L165.04 28.21L165.04 -21.79zM251.64 28.21L294.94 53.21L294.94 103.21L251.64 128.21L208.34 103.21L208.34 53.21zM251.64 178.21L294.94 203.21L294.94 253.21L251.64 278.21L208.34 253.21L208.34 203.21zM251.64 1078.21L294.94 1103.21L294.94 1153.21L251.64 1178.21L208.34 1153.21L208.34 1103.21zM208.34 1153.21L251.64 1178.21L251.64 1228.21L208.34 1253.21L165.04 1228.21L165.04 1178.21zM251.64 1528.21L294.94 1553.21L294.94 1603.21L251.64 1628.21L208.34 1603.21L208.34 1553.21zM208.34 1603.21L251.64 1628.21L251.64 1678.21L208.34 1703.21L165.04 1678.21L165.04 1628.21zM208.34 1753.21L251.64 1778.21L251.64 1828.21L208.34 1853.21L165.04 1828.21L165.04 1778.21zM208.34 1903.21L251.64 1928.21L251.64 1978.21L208.34 2003.21L165.04 1978.21L165.04 1928.21zM294.94 -46.79L338.25 -21.79L338.25 28.21L294.94 53.21L251.64 28.21L251.64 -21.79zM338.25 28.21L381.55 53.21L381.55 103.21L338.25 128.21L294.94 103.21L294.94 53.21zM338.25 478.21L381.55 503.21L381.55 553.21L338.25 578.21L294.94 553.21L294.94 503.21zM294.94 553.21L338.25 578.21L338.25 628.21L294.94 653.21L251.64 628.21L251.64 578.21zM338.25 628.21L381.55 653.21L381.55 703.21L338.25 728.21L294.94 703.21L294.94 653.21zM338.25 928.21L381.55 953.21L381.55 1003.21L338.25 1028.21L294.94 1003.21L294.94 953.21zM294.94 1003.21L338.25 1028.21L338.25 1078.21L294.94 1103.21L251.64 1078.21L251.64 1028.21zM294.94 1303.21L338.25 1328.21L338.25 1378.21L294.94 1403.21L251.64 1378.21L251.64 1328.21zM338.25 1678.21L381.55 1703.21L381.55 1753.21L338.25 1778.21L294.94 1753.21L294.94 1703.21zM294.94 1753.21L338.25 1778.21L338.25 1828.21L294.94 1853.21L251.64 1828.21L251.64 1778.21zM381.55 103.21L424.85 128.21L424.85 178.21L381.55 203.21L338.25 178.21L338.25 128.21zM381.55 403.21L424.85 428.21L424.85 478.21L381.55 503.21L338.25 478.21L338.25 428.21zM381.55 553.21L424.85 578.21L424.85 628.21L381.55 653.21L338.25 628.21L338.25 578.21zM424.85 628.21L468.16 653.21L468.16 703.21L424.85 728.21L381.55 703.21L381.55 653.21zM381.55 703.21L424.85 728.21L424.85 778.21L381.55 803.21L338.25 778.21L338.25 728.21zM424.85 778.21L468.16 803.21L468.16 853.21L424.85 878.21L381.55 853.21L381.55 803.21zM381.55 1003.21L424.85 1028.21L424.85 1078.21L381.55 1103.21L338.25 1078.21L338.25 1028.21zM424.85 1078.21L468.16 1103.21L468.16 1153.21L424.85 1178.21L381.55 1153.21L381.55 1103.21zM424.85 1378.21L468.16 1403.21L468.16 1453.21L424.85 1478.21L381.55 1453.21L381.55 1403.21zM424.85 1828.21L468.16 1853.21L468.16 1903.21L424.85 1928.21L381.55 1903.21L381.55 1853.21zM468.16 -46.79L511.46 -21.79L511.46 28.21L468.16 53.21L424.85 28.21L424.85 -21.79zM468.16 103.21L511.46 128.21L511.46 178.21L468.16 203.21L424.85 178.21L424.85 128.21zM511.46 178.21L554.76 203.21L554.76 253.21L511.46 278.21L468.16 253.21L468.16 203.21zM511.46 328.21L554.76 353.21L554.76 403.21L511.46 428.21L468.16 403.21L468.16 353.21zM468.16 553.21L511.46 578.21L511.46 628.21L468.16 653.21L424.85 628.21L424.85 578.21zM468.16 1003.21L511.46 1028.21L511.46 1078.21L468.16 1103.21L424.85 1078.21L424.85 1028.21zM554.76 -46.79L598.06 -21.79L598.06 28.21L554.76 53.21L511.46 28.21L511.46 -21.79zM598.06 28.21L641.37 53.21L641.37 103.21L598.06 128.21L554.76 103.21L554.76 53.21zM598.06 178.21L641.37 203.21L641.37 253.21L598.06 278.21L554.76 253.21L554.76 203.21zM554.76 253.21L598.06 278.21L598.06 328.21L554.76 353.21L511.46 328.21L511.46 278.21zM598.06 478.21L641.37 503.21L641.37 553.21L598.06 578.21L554.76 553.21L554.76 503.21zM598.06 628.21L641.37 653.21L641.37 703.21L598.06 728.21L554.76 703.21L554.76 653.21zM554.76 703.21L598.06 728.21L598.06 778.21L554.76 803.21L511.46 778.21L511.46 728.21zM554.76 853.21L598.06 878.21L598.06 928.21L554.76 953.21L511.46 928.21L511.46 878.21zM554.76 1003.21L598.06 1028.21L598.06 1078.21L554.76 1103.21L511.46 1078.21L511.46 1028.21zM598.06 1078.21L641.37 1103.21L641.37 1153.21L598.06 1178.21L554.76 1153.21L554.76 1103.21zM554.76 1453.21L598.06 1478.21L598.06 1528.21L554.76 1553.21L511.46 1528.21L511.46 1478.21zM554.76 1753.21L598.06 1778.21L598.06 1828.21L554.76 1853.21L511.46 1828.21L511.46 1778.21zM554.76 1903.21L598.06 1928.21L598.06 1978.21L554.76 2003.21L511.46 1978.21L511.46 1928.21zM641.37 -46.79L684.67 -21.79L684.67 28.21L641.37 53.21L598.06 28.21L598.06 -21.79zM641.37 253.21L684.67 278.21L684.67 328.21L641.37 353.21L598.06 328.21L598.06 278.21zM641.37 403.21L684.67 428.21L684.67 478.21L641.37 503.21L598.06 478.21L598.06 428.21zM641.37 553.21L684.67 578.21L684.67 628.21L641.37 653.21L598.06 628.21L598.06 578.21zM641.37 703.21L684.67 728.21L684.67 778.21L641.37 803.21L598.06 778.21L598.06 728.21zM684.67 778.21L727.97 803.21L727.97 853.21L684.67 878.21L641.37 853.21L641.37 803.21zM641.37 1153.21L684.67 1178.21L684.67 1228.21L641.37 1253.21L598.06 1228.21L598.06 1178.21zM641.37 1453.21L684.67 1478.21L684.67 1528.21L641.37 1553.21L598.06 1528.21L598.06 1478.21zM641.37 1753.21L684.67 1778.21L684.67 1828.21L641.37 1853.21L598.06 1828.21L598.06 1778.21zM771.27 28.21L814.58 53.21L814.58 103.21L771.27 128.21L727.97 103.21L727.97 53.21zM727.97 253.21L771.27 278.21L771.27 328.21L727.97 353.21L684.67 328.21L684.67 278.21zM727.97 403.21L771.27 428.21L771.27 478.21L727.97 503.21L684.67 478.21L684.67 428.21zM771.27 478.21L814.58 503.21L814.58 553.21L771.27 578.21L727.97 553.21L727.97 503.21zM771.27 628.21L814.58 653.21L814.58 703.21L771.27 728.21L727.97 703.21L727.97 653.21zM727.97 853.21L771.27 878.21L771.27 928.21L727.97 953.21L684.67 928.21L684.67 878.21zM771.27 1078.21L814.58 1103.21L814.58 1153.21L771.27 1178.21L727.97 1153.21L727.97 1103.21zM727.97 1153.21L771.27 1178.21L771.27 1228.21L727.97 1253.21L684.67 1228.21L684.67 1178.21zM771.27 1228.21L814.58 1253.21L814.58 1303.21L771.27 1328.21L727.97 1303.21L727.97 1253.21zM771.27 1378.21L814.58 1403.21L814.58 1453.21L771.27 1478.21L727.97 1453.21L727.97 1403.21zM727.97 1603.21L771.27 1628.21L771.27 1678.21L727.97 1703.21L684.67 1678.21L684.67 1628.21zM771.27 1678.21L814.58 1703.21L814.58 1753.21L771.27 1778.21L727.97 1753.21L727.97 1703.21zM771.27 1828.21L814.58 1853.21L814.58 1903.21L771.27 1928.21L727.97 1903.21L727.97 1853.21zM814.58 103.21L857.88 128.21L857.88 178.21L814.58 203.21L771.27 178.21L771.27 128.21zM857.88 178.21L901.18 203.21L901.18 253.21L857.88 278.21L814.58 253.21L814.58 203.21zM814.58 403.21L857.88 428.21L857.88 478.21L814.58 503.21L771.27 478.21L771.27 428.21zM857.88 628.21L901.18 653.21L901.18 703.21L857.88 728.21L814.58 703.21L814.58 653.21zM814.58 703.21L857.88 728.21L857.88 778.21L814.58 803.21L771.27 778.21L771.27 728.21zM857.88 778.21L901.18 803.21L901.18 853.21L857.88 878.21L814.58 853.21L814.58 803.21zM814.58 853.21L857.88 878.21L857.88 928.21L814.58 953.21L771.27 928.21L771.27 878.21zM857.88 928.21L901.18 953.21L901.18 1003.21L857.88 1028.21L814.58 1003.21L814.58 953.21zM857.88 1078.21L901.18 1103.21L901.18 1153.21L857.88 1178.21L814.58 1153.21L814.58 1103.21zM857.88 1378.21L901.18 1403.21L901.18 1453.21L857.88 1478.21L814.58 1453.21L814.58 1403.21zM814.58 1453.21L857.88 1478.21L857.88 1528.21L814.58 1553.21L771.27 1528.21L771.27 1478.21zM814.58 1603.21L857.88 1628.21L857.88 1678.21L814.58 1703.21L771.27 1678.21L771.27 1628.21zM814.58 1903.21L857.88 1928.21L857.88 1978.21L814.58 2003.21L771.27 1978.21L771.27 1928.21zM944.48 328.21L987.79 353.21L987.79 403.21L944.48 428.21L901.18 403.21L901.18 353.21zM944.48 778.21L987.79 803.21L987.79 853.21L944.48 878.21L901.18 853.21L901.18 803.21zM901.18 853.21L944.48 878.21L944.48 928.21L901.18 953.21L857.88 928.21L857.88 878.21zM901.18 1303.21L944.48 1328.21L944.48 1378.21L901.18 1403.21L857.88 1378.21L857.88 1328.21zM944.48 1378.21L987.79 1403.21L987.79 1453.21L944.48 1478.21L901.18 1453.21L901.18 1403.21zM901.18 1453.21L944.48 1478.21L944.48 1528.21L901.18 1553.21L857.88 1528.21L857.88 1478.21zM944.48 1828.21L987.79 1853.21L987.79 1903.21L944.48 1928.21L901.18 1903.21L901.18 1853.21zM1031.09 178.21L1074.39 203.21L1074.39 253.21L1031.09 278.21L987.79 253.21L987.79 203.21zM987.79 253.21L1031.09 278.21L1031.09 328.21L987.79 353.21L944.48 328.21L944.48 278.21zM987.79 403.21L1031.09 428.21L1031.09 478.21L987.79 503.21L944.48 478.21L944.48 428.21zM987.79 703.21L1031.09 728.21L1031.09 778.21L987.79 803.21L944.48 778.21L944.48 728.21zM1031.09 778.21L1074.39 803.21L1074.39 853.21L1031.09 878.21L987.79 853.21L987.79 803.21zM1031.09 928.21L1074.39 953.21L1074.39 1003.21L1031.09 1028.21L987.79 1003.21L987.79 953.21zM987.79 1003.21L1031.09 1028.21L1031.09 1078.21L987.79 1103.21L944.48 1078.21L944.48 1028.21zM1031.09 1078.21L1074.39 1103.21L1074.39 1153.21L1031.09 1178.21L987.79 1153.21L987.79 1103.21zM987.79 1303.21L1031.09 1328.21L1031.09 1378.21L987.79 1403.21L944.48 1378.21L944.48 1328.21zM987.79 1453.21L1031.09 1478.21L1031.09 1528.21L987.79 1553.21L944.48 1528.21L944.48 1478.21zM1031.09 1528.21L1074.39 1553.21L1074.39 1603.21L1031.09 1628.21L987.79 1603.21L987.79 1553.21zM987.79 1603.21L1031.09 1628.21L1031.09 1678.21L987.79 1703.21L944.48 1678.21L944.48 1628.21zM1031.09 1678.21L1074.39 1703.21L1074.39 1753.21L1031.09 1778.21L987.79 1753.21L987.79 1703.21zM987.79 1753.21L1031.09 1778.21L1031.09 1828.21L987.79 1853.21L944.48 1828.21L944.48 1778.21zM1117.69 178.21L1161 203.21L1161 253.21L1117.69 278.21L1074.39 253.21L1074.39 203.21zM1074.39 253.21L1117.69 278.21L1117.69 328.21L1074.39 353.21L1031.09 328.21L1031.09 278.21zM1074.39 403.21L1117.69 428.21L1117.69 478.21L1074.39 503.21L1031.09 478.21L1031.09 428.21zM1074.39 703.21L1117.69 728.21L1117.69 778.21L1074.39 803.21L1031.09 778.21L1031.09 728.21zM1117.69 778.21L1161 803.21L1161 853.21L1117.69 878.21L1074.39 853.21L1074.39 803.21zM1117.69 928.21L1161 953.21L1161 1003.21L1117.69 1028.21L1074.39 1003.21L1074.39 953.21zM1074.39 1303.21L1117.69 1328.21L1117.69 1378.21L1074.39 1403.21L1031.09 1378.21L1031.09 1328.21zM1074.39 1453.21L1117.69 1478.21L1117.69 1528.21L1074.39 1553.21L1031.09 1528.21L1031.09 1478.21zM1117.69 1528.21L1161 1553.21L1161 1603.21L1117.69 1628.21L1074.39 1603.21L1074.39 1553.21zM1074.39 1603.21L1117.69 1628.21L1117.69 1678.21L1074.39 1703.21L1031.09 1678.21L1031.09 1628.21zM1074.39 1753.21L1117.69 1778.21L1117.69 1828.21L1074.39 1853.21L1031.09 1828.21L1031.09 1778.21zM1117.69 1828.21L1161 1853.21L1161 1903.21L1117.69 1928.21L1074.39 1903.21L1074.39 1853.21z" stroke="rgba(6, 80, 156, 0.93)" stroke-width="2"></path></g><defs><mask id="SvgjsMask1010"><rect width="1080" height="1920" fill="#ffffff"></rect></mask></defs></svg>