<svg xmlns="http://www.w3.org/2000/svg" version="1.1" xmlns:xlink="http://www.w3.org/1999/xlink" xmlns:svgjs="http://svgjs.com/svgjs" width="1920" height="1080" preserveAspectRatio="none" viewBox="0 0 1920 1080"><g mask="url(&quot;#SvgjsMask1002&quot;)" fill="none"><rect width="1920" height="1080" x="0" y="0" fill="#0e2a47"></rect><path d="M8.6 212.5L73.55 250L73.55 325L8.6 362.5L-56.35 325L-56.35 250zM73.55 325L138.51 362.5L138.51 437.5L73.55 475L8.6 437.5L8.6 362.5zM138.51 -12.5L203.46 25L203.46 100L138.51 137.5L73.55 100L73.55 25zM203.46 100L268.42 137.5L268.42 212.5L203.46 250L138.51 212.5L138.51 137.5zM138.51 437.5L203.46 475L203.46 550L138.51 587.5L73.55 550L73.55 475zM333.37 100L398.32 137.5L398.32 212.5L333.37 250L268.42 212.5L268.42 137.5zM268.42 437.5L333.37 475L333.37 550L268.42 587.5L203.46 550L203.46 475zM333.37 550L398.32 587.5L398.32 662.5L333.37 700L268.42 662.5L268.42 587.5zM268.42 662.5L333.37 700L333.37 775L268.42 812.5L203.46 775L203.46 700zM333.37 775L398.32 812.5L398.32 887.5L333.37 925L268.42 887.5L268.42 812.5zM268.42 887.5L333.37 925L333.37 1000L268.42 1037.5L203.46 1000L203.46 925zM333.37 1000L398.32 1037.5L398.32 1112.5L333.37 1150L268.42 1112.5L268.42 1037.5zM268.42 1112.5L333.37 1150L333.37 1225L268.42 1262.5L203.46 1225L203.46 1150zM398.32 -12.5L463.28 25L463.28 100L398.32 137.5L333.37 100L333.37 25zM398.32 212.5L463.28 250L463.28 325L398.32 362.5L333.37 325L333.37 250zM463.28 325L528.23 362.5L528.23 437.5L463.28 475L398.32 437.5L398.32 362.5zM463.28 775L528.23 812.5L528.23 887.5L463.28 925L398.32 887.5L398.32 812.5zM463.28 1000L528.23 1037.5L528.23 1112.5L463.28 1150L398.32 1112.5L398.32 1037.5zM398.32 1112.5L463.28 1150L463.28 1225L398.32 1262.5L333.37 1225L333.37 1150zM593.18 100L658.14 137.5L658.14 212.5L593.18 250L528.23 212.5L528.23 137.5zM723.09 100L788.05 137.5L788.05 212.5L723.09 250L658.14 212.5L658.14 137.5zM723.09 325L788.05 362.5L788.05 437.5L723.09 475L658.14 437.5L658.14 362.5zM658.14 437.5L723.09 475L723.09 550L658.14 587.5L593.18 550L593.18 475zM723.09 550L788.05 587.5L788.05 662.5L723.09 700L658.14 662.5L658.14 587.5zM788.04 -12.5L853 25L853 100L788.04 137.5L723.09 100L723.09 25zM853 100L917.95 137.5L917.95 212.5L853 250L788.04 212.5L788.04 137.5zM853 775L917.95 812.5L917.95 887.5L853 925L788.04 887.5L788.04 812.5zM788.04 887.5L853 925L853 1000L788.04 1037.5L723.09 1000L723.09 925zM853 1000L917.95 1037.5L917.95 1112.5L853 1150L788.04 1112.5L788.04 1037.5zM982.91 100L1047.86 137.5L1047.86 212.5L982.91 250L917.95 212.5L917.95 137.5zM917.95 212.5L982.91 250L982.91 325L917.95 362.5L853 325L853 250zM982.91 325L1047.86 362.5L1047.86 437.5L982.91 475L917.95 437.5L917.95 362.5zM917.95 437.5L982.91 475L982.91 550L917.95 587.5L853 550L853 475zM917.95 887.5L982.91 925L982.91 1000L917.95 1037.5L853 1000L853 925zM1047.86 -12.5L1112.81 25L1112.81 100L1047.86 137.5L982.91 100L982.91 25zM1112.81 550L1177.77 587.5L1177.77 662.5L1112.81 700L1047.86 662.5L1047.86 587.5zM1047.86 887.5L1112.81 925L1112.81 1000L1047.86 1037.5L982.91 1000L982.91 925zM1242.72 100L1307.67 137.5L1307.67 212.5L1242.72 250L1177.77 212.5L1177.77 137.5zM1177.77 212.5L1242.72 250L1242.72 325L1177.77 362.5L1112.81 325L1112.81 250zM1242.72 325L1307.67 362.5L1307.67 437.5L1242.72 475L1177.77 437.5L1177.77 362.5zM1177.77 662.5L1242.72 700L1242.72 775L1177.77 812.5L1112.81 775L1112.81 700zM1242.72 775L1307.67 812.5L1307.67 887.5L1242.72 925L1177.77 887.5L1177.77 812.5zM1177.77 887.5L1242.72 925L1242.72 1000L1177.77 1037.5L1112.81 1000L1112.81 925zM1242.72 1000L1307.67 1037.5L1307.67 1112.5L1242.72 1150L1177.77 1112.5L1177.77 1037.5zM1372.63 100L1437.58 137.5L1437.58 212.5L1372.63 250L1307.67 212.5L1307.67 137.5zM1307.67 212.5L1372.63 250L1372.63 325L1307.67 362.5L1242.72 325L1242.72 250zM1307.67 437.5L1372.63 475L1372.63 550L1307.67 587.5L1242.72 550L1242.72 475zM1372.63 550L1437.58 587.5L1437.58 662.5L1372.63 700L1307.67 662.5L1307.67 587.5zM1307.67 662.5L1372.63 700L1372.63 775L1307.67 812.5L1242.72 775L1242.72 700zM1307.67 887.5L1372.63 925L1372.63 1000L1307.67 1037.5L1242.72 1000L1242.72 925zM1437.58 1112.5L1502.54 1150L1502.54 1225L1437.58 1262.5L1372.63 1225L1372.63 1150zM1567.49 -12.5L1632.44 25L1632.44 100L1567.49 137.5L1502.54 100L1502.54 25zM1632.44 100L1697.4 137.5L1697.4 212.5L1632.44 250L1567.49 212.5L1567.49 137.5zM1567.49 437.5L1632.44 475L1632.44 550L1567.49 587.5L1502.54 550L1502.54 475zM1632.44 550L1697.4 587.5L1697.4 662.5L1632.44 700L1567.49 662.5L1567.49 587.5zM1567.49 1112.5L1632.44 1150L1632.44 1225L1567.49 1262.5L1502.54 1225L1502.54 1150zM1697.4 -12.5L1762.35 25L1762.35 100L1697.4 137.5L1632.44 100L1632.44 25zM1762.35 100L1827.3 137.5L1827.3 212.5L1762.35 250L1697.4 212.5L1697.4 137.5zM1697.4 212.5L1762.35 250L1762.35 325L1697.4 362.5L1632.44 325L1632.44 250zM1762.35 325L1827.3 362.5L1827.3 437.5L1762.35 475L1697.4 437.5L1697.4 362.5zM1827.3 -12.5L1892.26 25L1892.26 100L1827.3 137.5L1762.35 100L1762.35 25z" stroke="#03305d" stroke-width="2"></path><path d="M1.1 212.5 a7.5 7.5 0 1 0 15 0 a7.5 7.5 0 1 0 -15 0zM66.05 250 a7.5 7.5 0 1 0 15 0 a7.5 7.5 0 1 0 -15 0zM66.05 325 a7.5 7.5 0 1 0 15 0 a7.5 7.5 0 1 0 -15 0zM1.1 362.5 a7.5 7.5 0 1 0 15 0 a7.5 7.5 0 1 0 -15 0zM-63.85 325 a7.5 7.5 0 1 0 15 0 a7.5 7.5 0 1 0 -15 0zM-63.85 250 a7.5 7.5 0 1 0 15 0 a7.5 7.5 0 1 0 -15 0zM131.01 362.5 a7.5 7.5 0 1 0 15 0 a7.5 7.5 0 1 0 -15 0zM131.01 437.5 a7.5 7.5 0 1 0 15 0 a7.5 7.5 0 1 0 -15 0zM66.05 475 a7.5 7.5 0 1 0 15 0 a7.5 7.5 0 1 0 -15 0zM1.1 437.5 a7.5 7.5 0 1 0 15 0 a7.5 7.5 0 1 0 -15 0zM131.01 -12.5 a7.5 7.5 0 1 0 15 0 a7.5 7.5 0 1 0 -15 0zM195.96 25 a7.5 7.5 0 1 0 15 0 a7.5 7.5 0 1 0 -15 0zM195.96 100 a7.5 7.5 0 1 0 15 0 a7.5 7.5 0 1 0 -15 0zM131.01 137.5 a7.5 7.5 0 1 0 15 0 a7.5 7.5 0 1 0 -15 0zM66.05 100 a7.5 7.5 0 1 0 15 0 a7.5 7.5 0 1 0 -15 0zM66.05 25 a7.5 7.5 0 1 0 15 0 a7.5 7.5 0 1 0 -15 0zM260.92 137.5 a7.5 7.5 0 1 0 15 0 a7.5 7.5 0 1 0 -15 0zM260.92 212.5 a7.5 7.5 0 1 0 15 0 a7.5 7.5 0 1 0 -15 0zM195.96 250 a7.5 7.5 0 1 0 15 0 a7.5 7.5 0 1 0 -15 0zM131.01 212.5 a7.5 7.5 0 1 0 15 0 a7.5 7.5 0 1 0 -15 0zM195.96 475 a7.5 7.5 0 1 0 15 0 a7.5 7.5 0 1 0 -15 0zM195.96 550 a7.5 7.5 0 1 0 15 0 a7.5 7.5 0 1 0 -15 0zM131.01 587.5 a7.5 7.5 0 1 0 15 0 a7.5 7.5 0 1 0 -15 0zM66.05 550 a7.5 7.5 0 1 0 15 0 a7.5 7.5 0 1 0 -15 0zM325.87 100 a7.5 7.5 0 1 0 15 0 a7.5 7.5 0 1 0 -15 0zM390.82 137.5 a7.5 7.5 0 1 0 15 0 a7.5 7.5 0 1 0 -15 0zM390.82 212.5 a7.5 7.5 0 1 0 15 0 a7.5 7.5 0 1 0 -15 0zM325.87 250 a7.5 7.5 0 1 0 15 0 a7.5 7.5 0 1 0 -15 0zM260.92 437.5 a7.5 7.5 0 1 0 15 0 a7.5 7.5 0 1 0 -15 0zM325.87 475 a7.5 7.5 0 1 0 15 0 a7.5 7.5 0 1 0 -15 0zM325.87 550 a7.5 7.5 0 1 0 15 0 a7.5 7.5 0 1 0 -15 0zM260.92 587.5 a7.5 7.5 0 1 0 15 0 a7.5 7.5 0 1 0 -15 0zM390.82 587.5 a7.5 7.5 0 1 0 15 0 a7.5 7.5 0 1 0 -15 0zM390.82 662.5 a7.5 7.5 0 1 0 15 0 a7.5 7.5 0 1 0 -15 0zM325.87 700 a7.5 7.5 0 1 0 15 0 a7.5 7.5 0 1 0 -15 0zM260.92 662.5 a7.5 7.5 0 1 0 15 0 a7.5 7.5 0 1 0 -15 0zM325.87 775 a7.5 7.5 0 1 0 15 0 a7.5 7.5 0 1 0 -15 0zM260.92 812.5 a7.5 7.5 0 1 0 15 0 a7.5 7.5 0 1 0 -15 0zM195.96 775 a7.5 7.5 0 1 0 15 0 a7.5 7.5 0 1 0 -15 0zM195.96 700 a7.5 7.5 0 1 0 15 0 a7.5 7.5 0 1 0 -15 0zM390.82 812.5 a7.5 7.5 0 1 0 15 0 a7.5 7.5 0 1 0 -15 0zM390.82 887.5 a7.5 7.5 0 1 0 15 0 a7.5 7.5 0 1 0 -15 0zM325.87 925 a7.5 7.5 0 1 0 15 0 a7.5 7.5 0 1 0 -15 0zM260.92 887.5 a7.5 7.5 0 1 0 15 0 a7.5 7.5 0 1 0 -15 0zM325.87 1000 a7.5 7.5 0 1 0 15 0 a7.5 7.5 0 1 0 -15 0zM260.92 1037.5 a7.5 7.5 0 1 0 15 0 a7.5 7.5 0 1 0 -15 0zM195.96 1000 a7.5 7.5 0 1 0 15 0 a7.5 7.5 0 1 0 -15 0zM195.96 925 a7.5 7.5 0 1 0 15 0 a7.5 7.5 0 1 0 -15 0zM390.82 1037.5 a7.5 7.5 0 1 0 15 0 a7.5 7.5 0 1 0 -15 0zM390.82 1112.5 a7.5 7.5 0 1 0 15 0 a7.5 7.5 0 1 0 -15 0zM325.87 1150 a7.5 7.5 0 1 0 15 0 a7.5 7.5 0 1 0 -15 0zM260.92 1112.5 a7.5 7.5 0 1 0 15 0 a7.5 7.5 0 1 0 -15 0zM325.87 1225 a7.5 7.5 0 1 0 15 0 a7.5 7.5 0 1 0 -15 0zM260.92 1262.5 a7.5 7.5 0 1 0 15 0 a7.5 7.5 0 1 0 -15 0zM195.96 1225 a7.5 7.5 0 1 0 15 0 a7.5 7.5 0 1 0 -15 0zM195.96 1150 a7.5 7.5 0 1 0 15 0 a7.5 7.5 0 1 0 -15 0zM390.82 -12.5 a7.5 7.5 0 1 0 15 0 a7.5 7.5 0 1 0 -15 0zM455.78 25 a7.5 7.5 0 1 0 15 0 a7.5 7.5 0 1 0 -15 0zM455.78 100 a7.5 7.5 0 1 0 15 0 a7.5 7.5 0 1 0 -15 0zM325.87 25 a7.5 7.5 0 1 0 15 0 a7.5 7.5 0 1 0 -15 0zM455.78 250 a7.5 7.5 0 1 0 15 0 a7.5 7.5 0 1 0 -15 0zM455.78 325 a7.5 7.5 0 1 0 15 0 a7.5 7.5 0 1 0 -15 0zM390.82 362.5 a7.5 7.5 0 1 0 15 0 a7.5 7.5 0 1 0 -15 0zM325.87 325 a7.5 7.5 0 1 0 15 0 a7.5 7.5 0 1 0 -15 0zM520.73 362.5 a7.5 7.5 0 1 0 15 0 a7.5 7.5 0 1 0 -15 0zM520.73 437.5 a7.5 7.5 0 1 0 15 0 a7.5 7.5 0 1 0 -15 0zM455.78 475 a7.5 7.5 0 1 0 15 0 a7.5 7.5 0 1 0 -15 0zM390.82 437.5 a7.5 7.5 0 1 0 15 0 a7.5 7.5 0 1 0 -15 0zM455.78 775 a7.5 7.5 0 1 0 15 0 a7.5 7.5 0 1 0 -15 0zM520.73 812.5 a7.5 7.5 0 1 0 15 0 a7.5 7.5 0 1 0 -15 0zM520.73 887.5 a7.5 7.5 0 1 0 15 0 a7.5 7.5 0 1 0 -15 0zM455.78 925 a7.5 7.5 0 1 0 15 0 a7.5 7.5 0 1 0 -15 0zM455.78 1000 a7.5 7.5 0 1 0 15 0 a7.5 7.5 0 1 0 -15 0zM520.73 1037.5 a7.5 7.5 0 1 0 15 0 a7.5 7.5 0 1 0 -15 0zM520.73 1112.5 a7.5 7.5 0 1 0 15 0 a7.5 7.5 0 1 0 -15 0zM455.78 1150 a7.5 7.5 0 1 0 15 0 a7.5 7.5 0 1 0 -15 0zM455.78 1225 a7.5 7.5 0 1 0 15 0 a7.5 7.5 0 1 0 -15 0zM390.82 1262.5 a7.5 7.5 0 1 0 15 0 a7.5 7.5 0 1 0 -15 0zM585.68 100 a7.5 7.5 0 1 0 15 0 a7.5 7.5 0 1 0 -15 0zM650.64 137.5 a7.5 7.5 0 1 0 15 0 a7.5 7.5 0 1 0 -15 0zM650.64 212.5 a7.5 7.5 0 1 0 15 0 a7.5 7.5 0 1 0 -15 0zM585.68 250 a7.5 7.5 0 1 0 15 0 a7.5 7.5 0 1 0 -15 0zM520.73 212.5 a7.5 7.5 0 1 0 15 0 a7.5 7.5 0 1 0 -15 0zM520.73 137.5 a7.5 7.5 0 1 0 15 0 a7.5 7.5 0 1 0 -15 0zM715.59 100 a7.5 7.5 0 1 0 15 0 a7.5 7.5 0 1 0 -15 0zM780.55 137.5 a7.5 7.5 0 1 0 15 0 a7.5 7.5 0 1 0 -15 0zM780.55 212.5 a7.5 7.5 0 1 0 15 0 a7.5 7.5 0 1 0 -15 0zM715.59 250 a7.5 7.5 0 1 0 15 0 a7.5 7.5 0 1 0 -15 0zM715.59 325 a7.5 7.5 0 1 0 15 0 a7.5 7.5 0 1 0 -15 0zM780.55 362.5 a7.5 7.5 0 1 0 15 0 a7.5 7.5 0 1 0 -15 0zM780.55 437.5 a7.5 7.5 0 1 0 15 0 a7.5 7.5 0 1 0 -15 0zM715.59 475 a7.5 7.5 0 1 0 15 0 a7.5 7.5 0 1 0 -15 0zM650.64 437.5 a7.5 7.5 0 1 0 15 0 a7.5 7.5 0 1 0 -15 0zM650.64 362.5 a7.5 7.5 0 1 0 15 0 a7.5 7.5 0 1 0 -15 0zM715.59 550 a7.5 7.5 0 1 0 15 0 a7.5 7.5 0 1 0 -15 0zM650.64 587.5 a7.5 7.5 0 1 0 15 0 a7.5 7.5 0 1 0 -15 0zM585.68 550 a7.5 7.5 0 1 0 15 0 a7.5 7.5 0 1 0 -15 0zM585.68 475 a7.5 7.5 0 1 0 15 0 a7.5 7.5 0 1 0 -15 0zM780.55 587.5 a7.5 7.5 0 1 0 15 0 a7.5 7.5 0 1 0 -15 0zM780.55 662.5 a7.5 7.5 0 1 0 15 0 a7.5 7.5 0 1 0 -15 0zM715.59 700 a7.5 7.5 0 1 0 15 0 a7.5 7.5 0 1 0 -15 0zM650.64 662.5 a7.5 7.5 0 1 0 15 0 a7.5 7.5 0 1 0 -15 0zM780.54 -12.5 a7.5 7.5 0 1 0 15 0 a7.5 7.5 0 1 0 -15 0zM845.5 25 a7.5 7.5 0 1 0 15 0 a7.5 7.5 0 1 0 -15 0zM845.5 100 a7.5 7.5 0 1 0 15 0 a7.5 7.5 0 1 0 -15 0zM780.54 137.5 a7.5 7.5 0 1 0 15 0 a7.5 7.5 0 1 0 -15 0zM715.59 25 a7.5 7.5 0 1 0 15 0 a7.5 7.5 0 1 0 -15 0zM910.45 137.5 a7.5 7.5 0 1 0 15 0 a7.5 7.5 0 1 0 -15 0zM910.45 212.5 a7.5 7.5 0 1 0 15 0 a7.5 7.5 0 1 0 -15 0zM845.5 250 a7.5 7.5 0 1 0 15 0 a7.5 7.5 0 1 0 -15 0zM780.54 212.5 a7.5 7.5 0 1 0 15 0 a7.5 7.5 0 1 0 -15 0zM845.5 775 a7.5 7.5 0 1 0 15 0 a7.5 7.5 0 1 0 -15 0zM910.45 812.5 a7.5 7.5 0 1 0 15 0 a7.5 7.5 0 1 0 -15 0zM910.45 887.5 a7.5 7.5 0 1 0 15 0 a7.5 7.5 0 1 0 -15 0zM845.5 925 a7.5 7.5 0 1 0 15 0 a7.5 7.5 0 1 0 -15 0zM780.54 887.5 a7.5 7.5 0 1 0 15 0 a7.5 7.5 0 1 0 -15 0zM780.54 812.5 a7.5 7.5 0 1 0 15 0 a7.5 7.5 0 1 0 -15 0zM845.5 1000 a7.5 7.5 0 1 0 15 0 a7.5 7.5 0 1 0 -15 0zM780.54 1037.5 a7.5 7.5 0 1 0 15 0 a7.5 7.5 0 1 0 -15 0zM715.59 1000 a7.5 7.5 0 1 0 15 0 a7.5 7.5 0 1 0 -15 0zM715.59 925 a7.5 7.5 0 1 0 15 0 a7.5 7.5 0 1 0 -15 0zM910.45 1037.5 a7.5 7.5 0 1 0 15 0 a7.5 7.5 0 1 0 -15 0zM910.45 1112.5 a7.5 7.5 0 1 0 15 0 a7.5 7.5 0 1 0 -15 0zM845.5 1150 a7.5 7.5 0 1 0 15 0 a7.5 7.5 0 1 0 -15 0zM780.54 1112.5 a7.5 7.5 0 1 0 15 0 a7.5 7.5 0 1 0 -15 0zM975.41 100 a7.5 7.5 0 1 0 15 0 a7.5 7.5 0 1 0 -15 0zM1040.36 137.5 a7.5 7.5 0 1 0 15 0 a7.5 7.5 0 1 0 -15 0zM1040.36 212.5 a7.5 7.5 0 1 0 15 0 a7.5 7.5 0 1 0 -15 0zM975.41 250 a7.5 7.5 0 1 0 15 0 a7.5 7.5 0 1 0 -15 0zM975.41 325 a7.5 7.5 0 1 0 15 0 a7.5 7.5 0 1 0 -15 0zM910.45 362.5 a7.5 7.5 0 1 0 15 0 a7.5 7.5 0 1 0 -15 0zM845.5 325 a7.5 7.5 0 1 0 15 0 a7.5 7.5 0 1 0 -15 0zM1040.36 362.5 a7.5 7.5 0 1 0 15 0 a7.5 7.5 0 1 0 -15 0zM1040.36 437.5 a7.5 7.5 0 1 0 15 0 a7.5 7.5 0 1 0 -15 0zM975.41 475 a7.5 7.5 0 1 0 15 0 a7.5 7.5 0 1 0 -15 0zM910.45 437.5 a7.5 7.5 0 1 0 15 0 a7.5 7.5 0 1 0 -15 0zM975.41 550 a7.5 7.5 0 1 0 15 0 a7.5 7.5 0 1 0 -15 0zM910.45 587.5 a7.5 7.5 0 1 0 15 0 a7.5 7.5 0 1 0 -15 0zM845.5 550 a7.5 7.5 0 1 0 15 0 a7.5 7.5 0 1 0 -15 0zM845.5 475 a7.5 7.5 0 1 0 15 0 a7.5 7.5 0 1 0 -15 0zM975.41 925 a7.5 7.5 0 1 0 15 0 a7.5 7.5 0 1 0 -15 0zM975.41 1000 a7.5 7.5 0 1 0 15 0 a7.5 7.5 0 1 0 -15 0zM1040.36 -12.5 a7.5 7.5 0 1 0 15 0 a7.5 7.5 0 1 0 -15 0zM1105.31 25 a7.5 7.5 0 1 0 15 0 a7.5 7.5 0 1 0 -15 0zM1105.31 100 a7.5 7.5 0 1 0 15 0 a7.5 7.5 0 1 0 -15 0zM975.41 25 a7.5 7.5 0 1 0 15 0 a7.5 7.5 0 1 0 -15 0zM1105.31 550 a7.5 7.5 0 1 0 15 0 a7.5 7.5 0 1 0 -15 0zM1170.27 587.5 a7.5 7.5 0 1 0 15 0 a7.5 7.5 0 1 0 -15 0zM1170.27 662.5 a7.5 7.5 0 1 0 15 0 a7.5 7.5 0 1 0 -15 0zM1105.31 700 a7.5 7.5 0 1 0 15 0 a7.5 7.5 0 1 0 -15 0zM1040.36 662.5 a7.5 7.5 0 1 0 15 0 a7.5 7.5 0 1 0 -15 0zM1040.36 587.5 a7.5 7.5 0 1 0 15 0 a7.5 7.5 0 1 0 -15 0zM1040.36 887.5 a7.5 7.5 0 1 0 15 0 a7.5 7.5 0 1 0 -15 0zM1105.31 925 a7.5 7.5 0 1 0 15 0 a7.5 7.5 0 1 0 -15 0zM1105.31 1000 a7.5 7.5 0 1 0 15 0 a7.5 7.5 0 1 0 -15 0zM1040.36 1037.5 a7.5 7.5 0 1 0 15 0 a7.5 7.5 0 1 0 -15 0zM1235.22 100 a7.5 7.5 0 1 0 15 0 a7.5 7.5 0 1 0 -15 0zM1300.17 137.5 a7.5 7.5 0 1 0 15 0 a7.5 7.5 0 1 0 -15 0zM1300.17 212.5 a7.5 7.5 0 1 0 15 0 a7.5 7.5 0 1 0 -15 0zM1235.22 250 a7.5 7.5 0 1 0 15 0 a7.5 7.5 0 1 0 -15 0zM1170.27 212.5 a7.5 7.5 0 1 0 15 0 a7.5 7.5 0 1 0 -15 0zM1170.27 137.5 a7.5 7.5 0 1 0 15 0 a7.5 7.5 0 1 0 -15 0zM1235.22 325 a7.5 7.5 0 1 0 15 0 a7.5 7.5 0 1 0 -15 0zM1170.27 362.5 a7.5 7.5 0 1 0 15 0 a7.5 7.5 0 1 0 -15 0zM1105.31 325 a7.5 7.5 0 1 0 15 0 a7.5 7.5 0 1 0 -15 0zM1105.31 250 a7.5 7.5 0 1 0 15 0 a7.5 7.5 0 1 0 -15 0zM1300.17 362.5 a7.5 7.5 0 1 0 15 0 a7.5 7.5 0 1 0 -15 0zM1300.17 437.5 a7.5 7.5 0 1 0 15 0 a7.5 7.5 0 1 0 -15 0zM1235.22 475 a7.5 7.5 0 1 0 15 0 a7.5 7.5 0 1 0 -15 0zM1170.27 437.5 a7.5 7.5 0 1 0 15 0 a7.5 7.5 0 1 0 -15 0zM1235.22 700 a7.5 7.5 0 1 0 15 0 a7.5 7.5 0 1 0 -15 0zM1235.22 775 a7.5 7.5 0 1 0 15 0 a7.5 7.5 0 1 0 -15 0zM1170.27 812.5 a7.5 7.5 0 1 0 15 0 a7.5 7.5 0 1 0 -15 0zM1105.31 775 a7.5 7.5 0 1 0 15 0 a7.5 7.5 0 1 0 -15 0zM1300.17 812.5 a7.5 7.5 0 1 0 15 0 a7.5 7.5 0 1 0 -15 0zM1300.17 887.5 a7.5 7.5 0 1 0 15 0 a7.5 7.5 0 1 0 -15 0zM1235.22 925 a7.5 7.5 0 1 0 15 0 a7.5 7.5 0 1 0 -15 0zM1170.27 887.5 a7.5 7.5 0 1 0 15 0 a7.5 7.5 0 1 0 -15 0zM1235.22 1000 a7.5 7.5 0 1 0 15 0 a7.5 7.5 0 1 0 -15 0zM1170.27 1037.5 a7.5 7.5 0 1 0 15 0 a7.5 7.5 0 1 0 -15 0zM1300.17 1037.5 a7.5 7.5 0 1 0 15 0 a7.5 7.5 0 1 0 -15 0zM1300.17 1112.5 a7.5 7.5 0 1 0 15 0 a7.5 7.5 0 1 0 -15 0zM1235.22 1150 a7.5 7.5 0 1 0 15 0 a7.5 7.5 0 1 0 -15 0zM1170.27 1112.5 a7.5 7.5 0 1 0 15 0 a7.5 7.5 0 1 0 -15 0zM1365.13 100 a7.5 7.5 0 1 0 15 0 a7.5 7.5 0 1 0 -15 0zM1430.08 137.5 a7.5 7.5 0 1 0 15 0 a7.5 7.5 0 1 0 -15 0zM1430.08 212.5 a7.5 7.5 0 1 0 15 0 a7.5 7.5 0 1 0 -15 0zM1365.13 250 a7.5 7.5 0 1 0 15 0 a7.5 7.5 0 1 0 -15 0zM1365.13 325 a7.5 7.5 0 1 0 15 0 a7.5 7.5 0 1 0 -15 0zM1365.13 475 a7.5 7.5 0 1 0 15 0 a7.5 7.5 0 1 0 -15 0zM1365.13 550 a7.5 7.5 0 1 0 15 0 a7.5 7.5 0 1 0 -15 0zM1300.17 587.5 a7.5 7.5 0 1 0 15 0 a7.5 7.5 0 1 0 -15 0zM1235.22 550 a7.5 7.5 0 1 0 15 0 a7.5 7.5 0 1 0 -15 0zM1430.08 587.5 a7.5 7.5 0 1 0 15 0 a7.5 7.5 0 1 0 -15 0zM1430.08 662.5 a7.5 7.5 0 1 0 15 0 a7.5 7.5 0 1 0 -15 0zM1365.13 700 a7.5 7.5 0 1 0 15 0 a7.5 7.5 0 1 0 -15 0zM1300.17 662.5 a7.5 7.5 0 1 0 15 0 a7.5 7.5 0 1 0 -15 0zM1365.13 775 a7.5 7.5 0 1 0 15 0 a7.5 7.5 0 1 0 -15 0zM1365.13 925 a7.5 7.5 0 1 0 15 0 a7.5 7.5 0 1 0 -15 0zM1365.13 1000 a7.5 7.5 0 1 0 15 0 a7.5 7.5 0 1 0 -15 0zM1430.08 1112.5 a7.5 7.5 0 1 0 15 0 a7.5 7.5 0 1 0 -15 0zM1495.04 1150 a7.5 7.5 0 1 0 15 0 a7.5 7.5 0 1 0 -15 0zM1495.04 1225 a7.5 7.5 0 1 0 15 0 a7.5 7.5 0 1 0 -15 0zM1430.08 1262.5 a7.5 7.5 0 1 0 15 0 a7.5 7.5 0 1 0 -15 0zM1365.13 1225 a7.5 7.5 0 1 0 15 0 a7.5 7.5 0 1 0 -15 0zM1365.13 1150 a7.5 7.5 0 1 0 15 0 a7.5 7.5 0 1 0 -15 0zM1559.99 -12.5 a7.5 7.5 0 1 0 15 0 a7.5 7.5 0 1 0 -15 0zM1624.94 25 a7.5 7.5 0 1 0 15 0 a7.5 7.5 0 1 0 -15 0zM1624.94 100 a7.5 7.5 0 1 0 15 0 a7.5 7.5 0 1 0 -15 0zM1559.99 137.5 a7.5 7.5 0 1 0 15 0 a7.5 7.5 0 1 0 -15 0zM1495.04 100 a7.5 7.5 0 1 0 15 0 a7.5 7.5 0 1 0 -15 0zM1495.04 25 a7.5 7.5 0 1 0 15 0 a7.5 7.5 0 1 0 -15 0zM1689.9 137.5 a7.5 7.5 0 1 0 15 0 a7.5 7.5 0 1 0 -15 0zM1689.9 212.5 a7.5 7.5 0 1 0 15 0 a7.5 7.5 0 1 0 -15 0zM1624.94 250 a7.5 7.5 0 1 0 15 0 a7.5 7.5 0 1 0 -15 0zM1559.99 212.5 a7.5 7.5 0 1 0 15 0 a7.5 7.5 0 1 0 -15 0zM1559.99 437.5 a7.5 7.5 0 1 0 15 0 a7.5 7.5 0 1 0 -15 0zM1624.94 475 a7.5 7.5 0 1 0 15 0 a7.5 7.5 0 1 0 -15 0zM1624.94 550 a7.5 7.5 0 1 0 15 0 a7.5 7.5 0 1 0 -15 0zM1559.99 587.5 a7.5 7.5 0 1 0 15 0 a7.5 7.5 0 1 0 -15 0zM1495.04 550 a7.5 7.5 0 1 0 15 0 a7.5 7.5 0 1 0 -15 0zM1495.04 475 a7.5 7.5 0 1 0 15 0 a7.5 7.5 0 1 0 -15 0zM1689.9 587.5 a7.5 7.5 0 1 0 15 0 a7.5 7.5 0 1 0 -15 0zM1689.9 662.5 a7.5 7.5 0 1 0 15 0 a7.5 7.5 0 1 0 -15 0zM1624.94 700 a7.5 7.5 0 1 0 15 0 a7.5 7.5 0 1 0 -15 0zM1559.99 662.5 a7.5 7.5 0 1 0 15 0 a7.5 7.5 0 1 0 -15 0zM1559.99 1112.5 a7.5 7.5 0 1 0 15 0 a7.5 7.5 0 1 0 -15 0zM1624.94 1150 a7.5 7.5 0 1 0 15 0 a7.5 7.5 0 1 0 -15 0zM1624.94 1225 a7.5 7.5 0 1 0 15 0 a7.5 7.5 0 1 0 -15 0zM1559.99 1262.5 a7.5 7.5 0 1 0 15 0 a7.5 7.5 0 1 0 -15 0zM1689.9 -12.5 a7.5 7.5 0 1 0 15 0 a7.5 7.5 0 1 0 -15 0zM1754.85 25 a7.5 7.5 0 1 0 15 0 a7.5 7.5 0 1 0 -15 0zM1754.85 100 a7.5 7.5 0 1 0 15 0 a7.5 7.5 0 1 0 -15 0zM1819.8 137.5 a7.5 7.5 0 1 0 15 0 a7.5 7.5 0 1 0 -15 0zM1819.8 212.5 a7.5 7.5 0 1 0 15 0 a7.5 7.5 0 1 0 -15 0zM1754.85 250 a7.5 7.5 0 1 0 15 0 a7.5 7.5 0 1 0 -15 0zM1754.85 325 a7.5 7.5 0 1 0 15 0 a7.5 7.5 0 1 0 -15 0zM1689.9 362.5 a7.5 7.5 0 1 0 15 0 a7.5 7.5 0 1 0 -15 0zM1624.94 325 a7.5 7.5 0 1 0 15 0 a7.5 7.5 0 1 0 -15 0zM1819.8 362.5 a7.5 7.5 0 1 0 15 0 a7.5 7.5 0 1 0 -15 0zM1819.8 437.5 a7.5 7.5 0 1 0 15 0 a7.5 7.5 0 1 0 -15 0zM1754.85 475 a7.5 7.5 0 1 0 15 0 a7.5 7.5 0 1 0 -15 0zM1689.9 437.5 a7.5 7.5 0 1 0 15 0 a7.5 7.5 0 1 0 -15 0zM1819.8 -12.5 a7.5 7.5 0 1 0 15 0 a7.5 7.5 0 1 0 -15 0zM1884.76 25 a7.5 7.5 0 1 0 15 0 a7.5 7.5 0 1 0 -15 0zM1884.76 100 a7.5 7.5 0 1 0 15 0 a7.5 7.5 0 1 0 -15 0z" fill="#03305d"></path><path d="M32.43 -47.74L75.73 -22.74L75.73 27.26L32.43 52.26L-10.87 27.26L-10.87 -22.74zM75.73 27.26L119.03 52.26L119.03 102.26L75.73 127.26L32.43 102.26L32.43 52.26zM32.43 102.26L75.73 127.26L75.73 177.26L32.43 202.26L-10.87 177.26L-10.87 127.26zM75.73 327.26L119.03 352.26L119.03 402.26L75.73 427.26L32.43 402.26L32.43 352.26zM75.73 477.26L119.03 502.26L119.03 552.26L75.73 577.26L32.43 552.26L32.43 502.26zM162.34 177.26L205.64 202.26L205.64 252.26L162.34 277.26L119.03 252.26L119.03 202.26zM162.34 477.26L205.64 502.26L205.64 552.26L162.34 577.26L119.03 552.26L119.03 502.26zM162.34 777.26L205.64 802.26L205.64 852.26L162.34 877.26L119.03 852.26L119.03 802.26zM248.94 177.26L292.25 202.26L292.25 252.26L248.94 277.26L205.64 252.26L205.64 202.26zM205.64 402.26L248.94 427.26L248.94 477.26L205.64 502.26L162.34 477.26L162.34 427.26zM248.94 627.26L292.25 652.26L292.25 702.26L248.94 727.26L205.64 702.26L205.64 652.26zM248.94 777.26L292.25 802.26L292.25 852.26L248.94 877.26L205.64 852.26L205.64 802.26zM335.55 27.26L378.85 52.26L378.85 102.26L335.55 127.26L292.25 102.26L292.25 52.26zM335.55 327.26L378.85 352.26L378.85 402.26L335.55 427.26L292.25 402.26L292.25 352.26zM335.55 927.26L378.85 952.26L378.85 1002.26L335.55 1027.26L292.25 1002.26L292.25 952.26zM292.25 1002.26L335.55 1027.26L335.55 1077.26L292.25 1102.26L248.94 1077.26L248.94 1027.26zM422.15 177.26L465.46 202.26L465.46 252.26L422.15 277.26L378.85 252.26L378.85 202.26zM422.15 627.26L465.46 652.26L465.46 702.26L422.15 727.26L378.85 702.26L378.85 652.26zM378.85 702.26L422.15 727.26L422.15 777.26L378.85 802.26L335.55 777.26L335.55 727.26zM378.85 1002.26L422.15 1027.26L422.15 1077.26L378.85 1102.26L335.55 1077.26L335.55 1027.26zM465.46 -47.74L508.76 -22.74L508.76 27.26L465.46 52.26L422.15 27.26L422.15 -22.74zM508.76 177.26L552.06 202.26L552.06 252.26L508.76 277.26L465.46 252.26L465.46 202.26zM465.46 702.26L508.76 727.26L508.76 777.26L465.46 802.26L422.15 777.26L422.15 727.26zM508.76 777.26L552.06 802.26L552.06 852.26L508.76 877.26L465.46 852.26L465.46 802.26zM508.76 927.26L552.06 952.26L552.06 1002.26L508.76 1027.26L465.46 1002.26L465.46 952.26zM552.06 102.26L595.36 127.26L595.36 177.26L552.06 202.26L508.76 177.26L508.76 127.26zM552.06 402.26L595.36 427.26L595.36 477.26L552.06 502.26L508.76 477.26L508.76 427.26zM552.06 702.26L595.36 727.26L595.36 777.26L552.06 802.26L508.76 777.26L508.76 727.26zM552.06 852.26L595.36 877.26L595.36 927.26L552.06 952.26L508.76 927.26L508.76 877.26zM681.97 27.26L725.27 52.26L725.27 102.26L681.97 127.26L638.66 102.26L638.66 52.26zM681.97 627.26L725.27 652.26L725.27 702.26L681.97 727.26L638.66 702.26L638.66 652.26zM638.66 702.26L681.97 727.26L681.97 777.26L638.66 802.26L595.36 777.26L595.36 727.26zM638.66 852.26L681.97 877.26L681.97 927.26L638.66 952.26L595.36 927.26L595.36 877.26zM681.97 927.26L725.27 952.26L725.27 1002.26L681.97 1027.26L638.66 1002.26L638.66 952.26zM638.66 1002.26L681.97 1027.26L681.97 1077.26L638.66 1102.26L595.36 1077.26L595.36 1027.26zM725.27 -47.74L768.57 -22.74L768.57 27.26L725.27 52.26L681.97 27.26L681.97 -22.74zM768.57 177.26L811.88 202.26L811.88 252.26L768.57 277.26L725.27 252.26L725.27 202.26zM725.27 702.26L768.57 727.26L768.57 777.26L725.27 802.26L681.97 777.26L681.97 727.26zM725.27 852.26L768.57 877.26L768.57 927.26L725.27 952.26L681.97 927.26L681.97 877.26zM811.88 252.26L855.18 277.26L855.18 327.26L811.88 352.26L768.57 327.26L768.57 277.26zM855.18 627.26L898.48 652.26L898.48 702.26L855.18 727.26L811.88 702.26L811.88 652.26zM855.18 927.26L898.48 952.26L898.48 1002.26L855.18 1027.26L811.88 1002.26L811.88 952.26zM898.48 102.26L941.78 127.26L941.78 177.26L898.48 202.26L855.18 177.26L855.18 127.26zM898.48 402.26L941.78 427.26L941.78 477.26L898.48 502.26L855.18 477.26L855.18 427.26zM898.48 552.26L941.78 577.26L941.78 627.26L898.48 652.26L855.18 627.26L855.18 577.26zM941.78 627.26L985.09 652.26L985.09 702.26L941.78 727.26L898.48 702.26L898.48 652.26zM1028.39 477.26L1071.69 502.26L1071.69 552.26L1028.39 577.26L985.09 552.26L985.09 502.26zM1071.69 -47.74L1114.99 -22.74L1114.99 27.26L1071.69 52.26L1028.39 27.26L1028.39 -22.74zM1114.99 327.26L1158.3 352.26L1158.3 402.26L1114.99 427.26L1071.69 402.26L1071.69 352.26zM1071.69 552.26L1114.99 577.26L1114.99 627.26L1071.69 652.26L1028.39 627.26L1028.39 577.26zM1158.3 -47.74L1201.6 -22.74L1201.6 27.26L1158.3 52.26L1114.99 27.26L1114.99 -22.74zM1158.3 402.26L1201.6 427.26L1201.6 477.26L1158.3 502.26L1114.99 477.26L1114.99 427.26zM1201.6 927.26L1244.9 952.26L1244.9 1002.26L1201.6 1027.26L1158.3 1002.26L1158.3 952.26zM1244.9 -47.74L1288.2 -22.74L1288.2 27.26L1244.9 52.26L1201.6 27.26L1201.6 -22.74zM1288.2 627.26L1331.51 652.26L1331.51 702.26L1288.2 727.26L1244.9 702.26L1244.9 652.26zM1244.9 702.26L1288.2 727.26L1288.2 777.26L1244.9 802.26L1201.6 777.26L1201.6 727.26zM1244.9 852.26L1288.2 877.26L1288.2 927.26L1244.9 952.26L1201.6 927.26L1201.6 877.26zM1331.51 252.26L1374.81 277.26L1374.81 327.26L1331.51 352.26L1288.2 327.26L1288.2 277.26zM1331.51 552.26L1374.81 577.26L1374.81 627.26L1331.51 652.26L1288.2 627.26L1288.2 577.26zM1331.51 852.26L1374.81 877.26L1374.81 927.26L1331.51 952.26L1288.2 927.26L1288.2 877.26zM1331.51 1002.26L1374.81 1027.26L1374.81 1077.26L1331.51 1102.26L1288.2 1077.26L1288.2 1027.26zM1461.41 477.26L1504.72 502.26L1504.72 552.26L1461.41 577.26L1418.11 552.26L1418.11 502.26zM1548.02 477.26L1591.32 502.26L1591.32 552.26L1548.02 577.26L1504.72 552.26L1504.72 502.26zM1548.02 627.26L1591.32 652.26L1591.32 702.26L1548.02 727.26L1504.72 702.26L1504.72 652.26zM1504.72 702.26L1548.02 727.26L1548.02 777.26L1504.72 802.26L1461.41 777.26L1461.41 727.26zM1591.32 252.26L1634.62 277.26L1634.62 327.26L1591.32 352.26L1548.02 327.26L1548.02 277.26zM1591.32 852.26L1634.62 877.26L1634.62 927.26L1591.32 952.26L1548.02 927.26L1548.02 877.26zM1634.62 927.26L1677.93 952.26L1677.93 1002.26L1634.62 1027.26L1591.32 1002.26L1591.32 952.26zM1721.23 27.26L1764.53 52.26L1764.53 102.26L1721.23 127.26L1677.93 102.26L1677.93 52.26zM1721.23 777.26L1764.53 802.26L1764.53 852.26L1721.23 877.26L1677.93 852.26L1677.93 802.26zM1721.23 927.26L1764.53 952.26L1764.53 1002.26L1721.23 1027.26L1677.93 1002.26L1677.93 952.26zM1677.93 1002.26L1721.23 1027.26L1721.23 1077.26L1677.93 1102.26L1634.62 1077.26L1634.62 1027.26zM1764.53 102.26L1807.83 127.26L1807.83 177.26L1764.53 202.26L1721.23 177.26L1721.23 127.26zM1807.83 177.26L1851.14 202.26L1851.14 252.26L1807.83 277.26L1764.53 252.26L1764.53 202.26zM1764.53 402.26L1807.83 427.26L1807.83 477.26L1764.53 502.26L1721.23 477.26L1721.23 427.26zM1807.83 477.26L1851.14 502.26L1851.14 552.26L1807.83 577.26L1764.53 552.26L1764.53 502.26zM1764.53 552.26L1807.83 577.26L1807.83 627.26L1764.53 652.26L1721.23 627.26L1721.23 577.26zM1807.83 627.26L1851.14 652.26L1851.14 702.26L1807.83 727.26L1764.53 702.26L1764.53 652.26zM1807.83 777.26L1851.14 802.26L1851.14 852.26L1807.83 877.26L1764.53 852.26L1764.53 802.26zM1764.53 852.26L1807.83 877.26L1807.83 927.26L1764.53 952.26L1721.23 927.26L1721.23 877.26zM1807.83 927.26L1851.14 952.26L1851.14 1002.26L1807.83 1027.26L1764.53 1002.26L1764.53 952.26zM1851.14 102.26L1894.44 127.26L1894.44 177.26L1851.14 202.26L1807.83 177.26L1807.83 127.26zM1894.44 777.26L1937.74 802.26L1937.74 852.26L1894.44 877.26L1851.14 852.26L1851.14 802.26zM1851.14 1002.26L1894.44 1027.26L1894.44 1077.26L1851.14 1102.26L1807.83 1077.26L1807.83 1027.26zM1937.74 -47.74L1981.04 -22.74L1981.04 27.26L1937.74 52.26L1894.44 27.26L1894.44 -22.74zM1981.04 327.26L2024.35 352.26L2024.35 402.26L1981.04 427.26L1937.74 402.26L1937.74 352.26zM1981.04 627.26L2024.35 652.26L2024.35 702.26L1981.04 727.26L1937.74 702.26L1937.74 652.26z" stroke="rgba(6, 80, 156, 0.93)" stroke-width="2"></path></g><defs><mask id="SvgjsMask1002"><rect width="1920" height="1080" fill="#ffffff"></rect></mask></defs></svg>